<svg version="1.1" id="Layer_1" xmlns="http://www.w3.org/2000/svg" xmlns:xlink="http://www.w3.org/1999/xlink" x="0px" y="0px"
	 width="100%" viewBox="0 0 1024 1024" enable-background="new 0 0 1024 1024" xml:space="preserve">
<path fill="#267FFD" opacity="1.000000" stroke="none" 
	d="
M558.000000,1025.000000 
	C528.312439,1025.000000 498.624878,1025.000000 468.754822,1024.626953 
	C467.388855,1023.836548 466.230988,1023.165588 465.017731,1023.043030 
	C457.502106,1022.283936 449.881653,1022.172180 442.468689,1020.865662 
	C425.498383,1017.874573 408.535339,1014.725220 391.735535,1010.908569 
	C358.070648,1003.260376 325.783112,991.428040 294.580261,976.784729 
	C267.115204,963.895508 241.034195,948.546448 216.305313,930.889465 
	C196.371216,916.656067 177.348450,901.343445 159.837006,884.233032 
	C149.507095,874.139709 139.462784,863.729675 129.711029,853.076721 
	C121.845619,844.484314 114.021164,835.739258 107.228714,826.305786 
	C95.829407,810.474243 85.045113,794.184570 74.404190,777.826050 
	C60.332550,756.193542 49.169601,732.958801 39.236847,709.235229 
	C28.712307,684.098145 20.212078,658.171448 14.320577,631.518616 
	C11.056501,616.752136 8.516879,601.812927 6.074005,586.882324 
	C4.621454,578.004517 4.032436,568.986938 2.915392,560.049683 
	C2.821486,559.298401 1.663578,558.680115 0.999996,558.000000 
	C1.000000,528.312439 1.000000,498.624878 1.372615,468.755859 
	C2.162985,467.391113 2.834478,466.233459 2.957064,465.020325 
	C3.716523,457.504639 3.829024,449.884216 5.135472,442.471130 
	C8.126292,425.500519 11.260653,408.533417 15.094303,391.737793 
	C22.739101,358.245117 34.480198,326.111542 49.042778,295.037018 
	C61.991241,267.406799 77.396805,241.189316 95.111397,216.306610 
	C109.026962,196.760208 124.026085,178.119675 140.715561,160.906143 
	C151.115738,150.179382 161.916122,139.815796 172.924515,129.711533 
	C181.505966,121.834885 190.260223,114.019295 199.693924,107.226883 
	C215.525528,95.827881 231.815948,85.044952 248.174149,74.403755 
	C269.806793,60.331459 293.041870,49.168476 316.765839,39.235958 
	C341.902954,28.711807 367.829773,20.211788 394.482269,14.319304 
	C409.248566,11.054686 424.187988,8.515965 439.118622,6.073347 
	C447.996552,4.620936 457.014099,4.032013 465.951447,2.915146 
	C466.702362,2.821309 467.320312,1.663509 468.000000,1.000008 
	C497.687561,1.000000 527.375122,1.000000 557.245361,1.373087 
	C558.611328,2.163603 559.769165,2.834567 560.982300,2.957052 
	C568.497986,3.715907 576.118530,3.827350 583.531494,5.133938 
	C600.502014,8.125123 617.468994,11.260720 634.264526,15.094722 
	C667.757202,22.740246 699.890503,34.482319 730.965637,49.043983 
	C758.596558,61.991676 784.813171,77.398750 809.695374,95.114006 
	C829.241516,109.030128 847.884827,124.026443 865.096863,140.718292 
	C875.822449,151.119766 886.186890,161.919220 896.290955,172.927765 
	C904.167480,181.509293 911.982422,190.263962 918.774902,199.697556 
	C930.174194,215.529221 940.959229,231.818512 951.599365,248.177612 
	C965.670044,269.811127 976.834167,293.045898 986.766174,316.770264 
	C997.289673,341.907440 1005.789978,367.834045 1011.681824,394.486511 
	C1014.946167,409.253113 1017.483704,424.193024 1019.925720,439.124054 
	C1021.377808,448.002106 1021.966919,457.019653 1023.083801,465.957031 
	C1023.177429,466.706146 1024.336060,467.322144 1025.000000,468.000000 
	C1025.000000,497.687561 1025.000000,527.375122 1024.626953,557.245178 
	C1023.836365,558.611267 1023.165466,559.769226 1023.042847,560.982605 
	C1022.283630,568.498047 1022.171326,576.118286 1020.864868,583.531128 
	C1017.873840,600.501526 1014.725159,617.464844 1010.908081,634.264648 
	C1003.259094,667.929504 991.427795,700.217773 976.783630,731.420776 
	C963.893738,758.885803 948.545532,784.967590 930.887878,809.696350 
	C916.751282,829.494080 901.554138,848.398254 884.581360,865.808533 
	C874.383728,876.268921 863.845764,886.421631 853.074280,896.290833 
	C844.485596,904.160095 835.736816,911.980957 826.303223,918.773560 
	C810.471680,930.172974 794.182495,940.958191 777.823486,951.598328 
	C756.190063,965.668945 732.955811,976.833557 709.231384,986.765076 
	C684.093872,997.288086 658.167480,1005.788818 631.515076,1011.681213 
	C616.748840,1014.945862 601.809387,1017.483887 586.878723,1019.926147 
	C578.001038,1021.378357 568.983704,1021.967407 560.046631,1023.084351 
	C559.296326,1023.178162 558.679077,1024.336304 558.000000,1025.000000 
M311.984802,763.983643 
	C311.984802,763.983643 311.990875,763.730652 312.450714,764.151733 
	C313.003021,764.419861 313.555298,764.687988 314.043610,764.975342 
	C314.043610,764.975342 314.045502,764.908569 314.191254,765.610596 
	C316.217712,766.711609 318.244141,767.812683 320.802338,768.954712 
	C321.212585,769.263489 321.622833,769.572266 322.382080,770.283997 
	C322.642731,770.526611 322.903381,770.769165 323.004852,770.971497 
	C323.004852,770.971497 323.045532,770.812439 323.395386,771.438049 
	C325.347809,772.229309 327.300262,773.020630 329.114563,773.831177 
	C329.114563,773.831177 329.099701,773.692444 329.403534,774.331848 
	C330.137177,774.985168 330.771881,775.834106 331.619232,776.262756 
	C345.833496,783.452393 360.923920,788.156860 376.559143,790.739685 
	C381.608246,791.573792 387.614075,792.818298 391.928680,787.923889 
	C391.928680,787.923889 391.806854,787.904602 392.420044,787.764404 
	C392.945068,787.433594 393.470123,787.102844 393.943939,786.919373 
	C393.943939,786.919373 393.797272,786.866211 394.505768,786.853027 
	C395.316071,786.172791 396.126404,785.492554 397.190552,784.257874 
	C398.349670,783.136658 399.508759,782.015381 401.189728,780.813538 
	C401.446442,780.204468 401.703156,779.595337 402.156250,778.321533 
	C406.760559,769.870850 411.451233,761.465942 415.952271,752.960632 
	C427.589111,730.971313 439.142334,708.937683 451.171509,686.490784 
	C451.415771,685.931396 451.660034,685.371948 451.943329,684.952515 
	C451.943329,684.952515 451.802979,684.990051 452.222412,684.531311 
	C452.451904,683.963745 452.681396,683.396240 452.920563,682.906494 
	C452.920563,682.906494 452.842438,682.913574 453.515442,682.749573 
	C456.280151,677.081665 459.044861,671.413757 461.871246,665.922852 
	C461.871246,665.922852 461.693176,665.981445 462.145081,665.515320 
	C462.374023,664.925476 462.602997,664.335632 462.888916,663.932861 
	C462.888916,663.932861 462.701141,663.987061 463.147766,663.517456 
	C463.377472,662.928833 463.607147,662.340210 463.842804,661.871094 
	C463.842804,661.871094 463.723083,661.872620 464.345703,661.864502 
	C464.911377,663.056396 465.544769,664.221375 466.030640,665.444946 
	C467.808228,669.921631 469.536713,674.417847 471.139648,678.893677 
	C471.139648,678.893677 471.156494,678.750061 471.255493,679.378113 
	C471.580170,679.911194 471.904816,680.444214 472.078857,680.937439 
	C472.078857,680.937439 472.120697,680.787415 472.244812,681.407043 
	C472.572083,681.938354 472.899353,682.469666 473.071350,682.953369 
	C473.071350,682.953369 473.120758,682.798645 473.241913,683.422058 
	C473.591553,683.943176 473.941162,684.464233 474.120056,684.929138 
	C474.120056,684.929138 474.179077,684.759399 474.142731,685.524109 
	C475.176514,686.988586 476.210297,688.453125 477.808319,690.272583 
	C484.241669,698.301453 490.056976,706.943176 497.260284,714.208618 
	C506.888611,723.919983 520.682007,723.762756 529.543945,713.475037 
	C538.273071,703.341370 545.735229,692.059448 553.180298,680.899170 
	C557.197205,674.877869 558.557556,667.735107 558.029724,660.368042 
	C557.874756,658.205750 558.005859,656.023010 558.005859,652.883118 
	C559.045776,654.277527 559.391174,654.631836 559.611633,655.051758 
	C580.070557,694.024475 600.437439,733.045898 621.071350,771.925598 
	C623.741333,776.956726 627.788025,781.257141 631.099548,786.241821 
	C631.465332,786.473694 631.831177,786.705566 632.615479,786.951111 
	C632.615479,786.951111 633.008484,787.095398 633.261475,787.749329 
	C634.470398,788.539917 635.583984,789.762939 636.903198,790.053833 
	C649.449280,792.821167 661.000549,789.155823 672.328369,784.279175 
	C672.587830,784.167480 672.720154,783.760315 673.461914,783.061401 
	C693.348511,776.843018 711.382935,767.300659 727.041443,753.416443 
	C747.385986,735.377075 760.404663,712.836548 768.722900,686.695496 
	C769.174805,684.134155 769.626709,681.572876 769.976929,678.309082 
	C770.105408,677.861511 770.233887,677.413940 770.949768,676.608093 
	C771.567566,675.287415 772.565247,674.016235 772.744934,672.638367 
	C774.730164,657.417175 774.818848,642.210999 771.710876,627.111084 
	C771.409485,625.646484 770.117920,624.385742 768.994507,622.282959 
	C762.540710,595.121643 748.735413,572.165833 728.458252,552.632568 
	C729.452576,552.236755 729.848328,552.004822 730.273315,551.920715 
	C751.989929,547.622559 771.172791,537.986328 786.739197,522.423645 
	C796.041443,513.123474 803.554688,502.033691 812.222900,491.797424 
	C812.241394,491.385986 812.259888,490.974579 812.551819,490.598816 
	C812.551819,490.598816 812.513672,490.871948 813.013000,490.393066 
	C813.322876,489.555389 813.632812,488.717712 813.976440,487.969391 
	C813.976440,487.969391 813.886841,488.002380 814.260803,487.530426 
	C814.493103,486.978271 814.725403,486.426117 814.966064,485.942688 
	C814.966064,485.942688 814.896790,485.942017 815.564880,485.693695 
	C816.002197,484.394592 816.439514,483.095459 816.900146,481.926147 
	C816.900146,481.926147 816.769958,481.946777 817.400574,481.600342 
	C818.550049,478.319794 819.699585,475.039215 820.871399,471.919983 
	C820.871399,471.919983 820.709656,471.939056 821.356140,471.577179 
	C821.839600,470.923065 822.631897,470.324158 822.760132,469.606567 
	C824.564636,459.508026 827.473511,449.429108 827.777405,439.275421 
	C828.513000,414.696350 828.027527,390.080658 828.027710,365.479706 
	C828.027832,346.031647 828.094360,326.583069 827.957092,307.135956 
	C827.924744,302.552582 827.742737,297.735748 822.885376,295.125122 
	C822.885376,295.125122 822.867676,295.198761 822.856262,294.488403 
	C822.144287,293.716614 821.432312,292.944794 820.855652,292.011627 
	C820.855652,292.011627 821.017090,292.146729 820.591858,291.795380 
	C820.310059,291.554901 820.028198,291.314392 819.192810,290.821075 
	C818.100403,289.637268 817.007996,288.453491 815.757629,286.578308 
	C812.762695,285.103271 809.767761,283.628235 806.904724,282.128418 
	C806.904724,282.128418 806.926025,282.260895 806.547424,281.598450 
	C803.100098,280.775269 799.547974,278.951904 796.223511,279.300446 
	C781.120483,280.883881 766.070740,283.002228 751.032288,285.142853 
	C748.937195,285.441071 747.011841,286.932434 744.234192,288.090607 
	C737.135986,289.761383 729.997803,291.279663 722.945862,293.126923 
	C664.322021,308.483307 615.639404,338.914612 579.550049,388.215546 
	C571.831482,398.759766 564.657410,409.702545 557.257629,420.425293 
	C552.020386,404.545959 548.895996,399.824829 534.738159,386.659302 
	C538.043152,378.740143 541.068176,370.475952 544.892212,362.599640 
	C549.166382,353.796021 553.666565,345.024628 558.939636,336.797577 
	C576.728516,309.043243 600.489014,288.541687 632.262329,278.160858 
	C635.409485,277.132629 638.682129,276.292969 641.596619,274.785950 
	C649.185791,270.861786 652.341858,261.947113 649.155151,254.335785 
	C645.837402,246.411469 638.020996,242.604523 629.616638,244.922104 
	C606.002563,251.433929 584.842102,262.504852 566.549988,278.911896 
	C543.572937,299.520966 527.435608,324.886017 515.011475,352.846802 
	C514.366943,354.297363 513.633362,355.708374 513.409607,356.170502 
	C505.367462,341.935608 498.012085,326.997894 488.920166,313.204865 
	C467.014832,279.973022 437.280853,256.644653 398.584381,245.666687 
	C395.023285,244.656448 390.963837,244.040527 387.398804,244.688492 
	C379.848358,246.060867 374.451477,253.104294 374.364258,260.333588 
	C374.273743,267.836212 379.247833,274.355560 387.372742,276.644928 
	C401.548492,280.639282 414.990936,286.199341 427.144562,294.593811 
	C459.421173,316.887054 477.437988,349.220367 490.489136,384.990356 
	C490.809784,385.869110 490.325256,387.614716 489.601624,388.214691 
	C480.094757,396.096893 473.143951,405.707642 469.406921,418.201416 
	C468.511566,416.842712 467.965302,416.066010 467.471741,415.257172 
	C445.832092,379.796204 418.718048,349.559601 383.419647,327.122681 
	C378.754120,324.157104 374.135468,321.117889 368.842438,317.810822 
	C368.167358,317.569733 367.492249,317.328674 366.903870,317.082916 
	C366.903870,317.082916 366.905792,317.169708 366.747131,316.494629 
	C361.426910,314.045654 356.106720,311.596680 350.909088,309.128021 
	C350.909088,309.128021 350.925354,309.251129 350.601379,308.622711 
	C348.642120,307.438751 346.799408,305.969604 344.705933,305.113983 
	C317.648254,294.055176 289.624969,286.434875 260.705017,282.290924 
	C250.044235,280.763336 239.279602,279.579163 228.529297,279.215576 
	C222.996628,279.028412 216.783310,279.453705 213.078781,285.069061 
	C213.078781,285.069061 213.146835,285.086243 212.448761,285.125549 
	C211.675476,285.824432 210.902176,286.523315 210.037216,287.073334 
	C210.037216,287.073334 210.186737,286.982666 209.800232,287.371948 
	C209.550461,287.639282 209.300705,287.906647 208.766602,288.753235 
	C206.962387,290.792694 205.158173,292.832153 202.645126,295.121429 
	C197.999939,299.237000 197.078705,304.828339 197.065109,310.507416 
	C196.967896,351.155304 196.875259,391.804321 197.138062,432.450714 
	C197.180237,438.974426 199.004761,445.486603 200.083847,452.407379 
	C200.083847,452.407379 200.054642,452.817139 200.029388,453.622772 
	C200.485291,455.090515 200.941193,456.558258 201.151810,457.944153 
	C201.151810,457.944153 201.237000,457.700012 201.138031,458.457916 
	C201.413437,459.636261 201.688843,460.814636 202.071808,462.389557 
	C202.071808,462.389557 202.061417,462.800323 202.155289,463.413910 
	C202.450104,463.949188 202.744919,464.484467 203.198715,465.303009 
	C203.198715,465.303009 203.103729,465.613617 203.203873,466.276978 
	C203.502045,466.866425 203.800201,467.455872 204.598389,468.560394 
	C220.032028,513.600037 250.921783,541.724182 296.222351,552.608459 
	C287.984131,563.629761 279.664215,574.760315 270.646576,586.123535 
	C268.141449,591.485107 265.636292,596.846741 263.107544,602.078125 
	C263.107544,602.078125 263.238190,602.057373 262.610992,602.403503 
	C261.181366,606.665833 259.751740,610.928162 258.646240,615.086243 
	C258.646240,615.086243 258.755005,615.408813 258.070404,615.720032 
	C257.540771,616.536682 256.707550,617.292297 256.529083,618.179565 
	C254.956802,625.996399 252.819031,633.783752 252.204956,641.685181 
	C251.606598,649.384338 252.602280,657.207397 253.042221,665.385254 
	C253.042221,665.385254 253.056015,665.818848 253.021683,666.628967 
	C253.315933,668.411926 253.610184,670.194885 254.052338,672.379578 
	C254.052338,672.379578 254.060364,672.807495 254.023499,673.669678 
	C254.670944,676.443665 255.318405,679.217590 256.077423,682.387573 
	C256.077423,682.387573 256.062469,682.798645 256.027313,683.631897 
	C256.895325,685.729065 257.763336,687.826294 258.980835,690.527649 
	C259.919556,693.347595 260.777252,696.197510 261.809631,698.982727 
	C271.106354,724.064270 286.842560,744.341797 308.154144,761.322021 
	C309.143311,761.858887 310.132477,762.395752 311.037231,762.964233 
	C311.037231,762.964233 311.006683,762.879456 311.398315,763.270447 
	C311.678162,763.510132 311.957977,763.749756 311.984802,763.983643 
z"/>
<path fill="#000000" opacity="1.000000" stroke="none" 
	d="
M467.531372,1.000008 
	C467.320312,1.663509 466.702362,2.821309 465.951447,2.915146 
	C457.014099,4.032013 447.996552,4.620936 439.118622,6.073347 
	C424.187988,8.515965 409.248566,11.054686 394.482269,14.319304 
	C367.829773,20.211788 341.902954,28.711807 316.765839,39.235958 
	C293.041870,49.168476 269.806793,60.331459 248.174149,74.403755 
	C231.815948,85.044952 215.525528,95.827881 199.693924,107.226883 
	C190.260223,114.019295 181.505966,121.834885 172.924515,129.711533 
	C161.916122,139.815796 151.115738,150.179382 140.715561,160.906143 
	C124.026085,178.119675 109.026962,196.760208 95.111397,216.306610 
	C77.396805,241.189316 61.991241,267.406799 49.042778,295.037018 
	C34.480198,326.111542 22.739101,358.245117 15.094303,391.737793 
	C11.260653,408.533417 8.126292,425.500519 5.135472,442.471130 
	C3.829024,449.884216 3.716523,457.504639 2.957064,465.020325 
	C2.834478,466.233459 2.162985,467.391113 1.372615,468.287231 
	C1.000000,312.406250 1.000000,156.812500 1.000000,1.000000 
	C156.354156,1.000000 311.708435,1.000000 467.531372,1.000008 
z"/>
<path fill="#000000" opacity="1.000000" stroke="none" 
	d="
M0.999996,558.468628 
	C1.663578,558.680115 2.821486,559.298401 2.915392,560.049683 
	C4.032436,568.986938 4.621454,578.004517 6.074005,586.882324 
	C8.516879,601.812927 11.056501,616.752136 14.320577,631.518616 
	C20.212078,658.171448 28.712307,684.098145 39.236847,709.235229 
	C49.169601,732.958801 60.332550,756.193542 74.404190,777.826050 
	C85.045113,794.184570 95.829407,810.474243 107.228714,826.305786 
	C114.021164,835.739258 121.845619,844.484314 129.711029,853.076721 
	C139.462784,863.729675 149.507095,874.139709 159.837006,884.233032 
	C177.348450,901.343445 196.371216,916.656067 216.305313,930.889465 
	C241.034195,948.546448 267.115204,963.895508 294.580261,976.784729 
	C325.783112,991.428040 358.070648,1003.260376 391.735535,1010.908569 
	C408.535339,1014.725220 425.498383,1017.874573 442.468689,1020.865662 
	C449.881653,1022.172180 457.502106,1022.283936 465.017731,1023.043030 
	C466.230988,1023.165588 467.388855,1023.836548 468.286194,1024.626953 
	C312.406250,1025.000000 156.812500,1025.000000 1.000000,1025.000000 
	C1.000000,869.645813 1.000000,714.291565 0.999996,558.468628 
z"/>
<path fill="#000000" opacity="1.000000" stroke="none" 
	d="
M558.468628,1025.000000 
	C558.679077,1024.336304 559.296326,1023.178162 560.046631,1023.084351 
	C568.983704,1021.967407 578.001038,1021.378357 586.878723,1019.926147 
	C601.809387,1017.483887 616.748840,1014.945862 631.515076,1011.681213 
	C658.167480,1005.788818 684.093872,997.288086 709.231384,986.765076 
	C732.955811,976.833557 756.190063,965.668945 777.823486,951.598328 
	C794.182495,940.958191 810.471680,930.172974 826.303223,918.773560 
	C835.736816,911.980957 844.485596,904.160095 853.074280,896.290833 
	C863.845764,886.421631 874.383728,876.268921 884.581360,865.808533 
	C901.554138,848.398254 916.751282,829.494080 930.887878,809.696350 
	C948.545532,784.967590 963.893738,758.885803 976.783630,731.420776 
	C991.427795,700.217773 1003.259094,667.929504 1010.908081,634.264648 
	C1014.725159,617.464844 1017.873840,600.501526 1020.864868,583.531128 
	C1022.171326,576.118286 1022.283630,568.498047 1023.042847,560.982605 
	C1023.165466,559.769226 1023.836365,558.611267 1024.626953,557.713867 
	C1025.000000,713.593750 1025.000000,869.187500 1025.000000,1025.000000 
	C869.645813,1025.000000 714.291565,1025.000000 558.468628,1025.000000 
z"/>
<path fill="#000000" opacity="1.000000" stroke="none" 
	d="
M1025.000000,467.531342 
	C1024.336060,467.322144 1023.177429,466.706146 1023.083801,465.957031 
	C1021.966919,457.019653 1021.377808,448.002106 1019.925720,439.124054 
	C1017.483704,424.193024 1014.946167,409.253113 1011.681824,394.486511 
	C1005.789978,367.834045 997.289673,341.907440 986.766174,316.770264 
	C976.834167,293.045898 965.670044,269.811127 951.599365,248.177612 
	C940.959229,231.818512 930.174194,215.529221 918.774902,199.697556 
	C911.982422,190.263962 904.167480,181.509293 896.290955,172.927765 
	C886.186890,161.919220 875.822449,151.119766 865.096863,140.718292 
	C847.884827,124.026443 829.241516,109.030128 809.695374,95.114006 
	C784.813171,77.398750 758.596558,61.991676 730.965637,49.043983 
	C699.890503,34.482319 667.757202,22.740246 634.264526,15.094722 
	C617.468994,11.260720 600.502014,8.125123 583.531494,5.133938 
	C576.118530,3.827350 568.497986,3.715907 560.982300,2.957052 
	C559.769165,2.834567 558.611328,2.163603 557.713989,1.373087 
	C713.593689,1.000000 869.187439,1.000000 1025.000000,1.000000 
	C1025.000000,156.354156 1025.000000,311.708435 1025.000000,467.531342 
z"/>
<path fill="#FDFEFF" opacity="1.000000" stroke="none" 
	d="
M307.899536,760.636963 
	C286.842560,744.341797 271.106354,724.064270 261.809631,698.982727 
	C260.777252,696.197510 259.919556,693.347595 258.700745,689.841248 
	C257.634613,687.036133 256.848541,684.917358 256.062469,682.798645 
	C256.062469,682.798645 256.077423,682.387573 256.118591,681.787354 
	C255.459976,678.393982 254.760162,675.600708 254.060364,672.807495 
	C254.060364,672.807495 254.052338,672.379578 254.065140,671.773071 
	C253.737289,669.384033 253.396652,667.601440 253.056015,665.818848 
	C253.056015,665.818848 253.042221,665.385254 253.033112,664.802490 
	C252.866074,647.706543 253.881363,631.331177 258.755005,615.408813 
	C258.755005,615.408813 258.646240,615.086243 258.777710,614.926880 
	C260.352173,610.530823 261.795197,606.294067 263.238190,602.057373 
	C263.238190,602.057373 263.107544,602.078125 263.386963,601.911316 
	C266.225708,596.459961 268.785004,591.175415 271.344330,585.890869 
	C279.664215,574.760315 287.984131,563.629761 296.222351,552.608459 
	C250.921783,541.724182 220.032028,513.600037 204.337555,467.953461 
	C203.752380,466.768890 203.428055,466.191254 203.103729,465.613617 
	C203.103729,465.613617 203.198715,465.303009 203.164978,464.826904 
	C202.774643,463.833954 202.418030,463.317139 202.061417,462.800323 
	C202.061417,462.800323 202.071808,462.389557 202.117599,461.822021 
	C201.854584,460.069672 201.545792,458.884827 201.237000,457.700012 
	C201.237000,457.700012 201.151810,457.944153 201.258301,457.571838 
	C200.928085,455.738739 200.491364,454.277954 200.054626,452.817139 
	C200.054642,452.817139 200.083847,452.407379 200.184418,451.781830 
	C199.867294,445.074768 199.104263,438.994171 199.087875,432.911591 
	C198.980667,393.094910 199.128494,353.277374 198.945068,313.461243 
	C198.914246,306.769928 199.787262,300.573853 203.353943,294.871582 
	C205.158173,292.832153 206.962387,290.792694 209.180115,288.353394 
	C209.791336,287.629944 209.989029,287.306305 210.186737,286.982666 
	C210.186737,286.982666 210.037216,287.073334 210.376663,287.037598 
	C211.526352,286.363312 212.336594,285.724762 213.146835,285.086243 
	C213.146835,285.086243 213.078781,285.069061 213.429810,285.009369 
	C222.700363,279.687805 232.240677,280.518066 241.871597,282.040222 
	C258.240753,284.627441 274.705994,286.708099 290.968292,289.844666 
	C311.700317,293.843353 331.431549,301.256470 350.925354,309.251129 
	C350.925354,309.251129 350.909088,309.128021 351.070496,309.413269 
	C356.456543,312.188934 361.681183,314.679321 366.905792,317.169708 
	C366.905792,317.169708 366.903870,317.082916 367.101135,317.385498 
	C368.030640,317.829681 368.762878,317.971252 369.495087,318.112793 
	C374.135468,321.117889 378.754120,324.157104 383.419647,327.122681 
	C418.718048,349.559601 445.832092,379.796204 467.471741,415.257172 
	C467.965302,416.066010 468.511566,416.842712 469.406921,418.201416 
	C473.143951,405.707642 480.094757,396.096893 489.601624,388.214691 
	C490.325256,387.614716 490.809784,385.869110 490.489136,384.990356 
	C477.437988,349.220367 459.421173,316.887054 427.144562,294.593811 
	C414.990936,286.199341 401.548492,280.639282 387.372742,276.644928 
	C379.247833,274.355560 374.273743,267.836212 374.364258,260.333588 
	C374.451477,253.104294 379.848358,246.060867 387.398804,244.688492 
	C390.963837,244.040527 395.023285,244.656448 398.584381,245.666687 
	C437.280853,256.644653 467.014832,279.973022 488.920166,313.204865 
	C498.012085,326.997894 505.367462,341.935608 513.409607,356.170502 
	C513.633362,355.708374 514.366943,354.297363 515.011475,352.846802 
	C527.435608,324.886017 543.572937,299.520966 566.549988,278.911896 
	C584.842102,262.504852 606.002563,251.433929 629.616638,244.922104 
	C638.020996,242.604523 645.837402,246.411469 649.155151,254.335785 
	C652.341858,261.947113 649.185791,270.861786 641.596619,274.785950 
	C638.682129,276.292969 635.409485,277.132629 632.262329,278.160858 
	C600.489014,288.541687 576.728516,309.043243 558.939636,336.797577 
	C553.666565,345.024628 549.166382,353.796021 544.892212,362.599640 
	C541.068176,370.475952 538.043152,378.740143 534.738159,386.659302 
	C548.895996,399.824829 552.020386,404.545959 557.257629,420.425293 
	C564.657410,409.702545 571.831482,398.759766 579.550049,388.215546 
	C615.639404,338.914612 664.322021,308.483307 722.945862,293.126923 
	C729.997803,291.279663 737.135986,289.761383 745.023926,287.990601 
	C754.308594,286.382721 762.752258,284.390167 771.310913,283.484406 
	C783.124329,282.234222 794.946716,279.296082 806.926025,282.260895 
	C806.926025,282.260895 806.904724,282.128418 807.074158,282.401917 
	C810.134277,284.206818 813.024902,285.738281 815.915588,287.269714 
	C817.007996,288.453491 818.100403,289.637268 819.597290,291.220856 
	C820.340271,291.795990 820.678650,291.971375 821.017090,292.146729 
	C821.017090,292.146729 820.855652,292.011627 820.897583,292.388367 
	C821.582214,293.576324 822.224976,294.387543 822.867676,295.198761 
	C822.867676,295.198761 822.885376,295.125122 822.946655,295.469788 
	C824.322693,301.037140 826.724060,306.248962 826.776123,311.484131 
	C827.117126,345.754089 826.766418,380.030396 827.019897,414.301880 
	C827.164124,433.800354 826.806030,453.161652 820.709656,471.939056 
	C820.709656,471.939056 820.871399,471.919983 820.590942,472.083435 
	C819.130310,475.480164 817.950134,478.713470 816.769958,481.946777 
	C816.769958,481.946777 816.900146,481.926147 816.628052,482.075653 
	C815.869507,483.464111 815.383118,484.703064 814.896729,485.942017 
	C814.896790,485.942017 814.966064,485.942688 814.725342,486.107666 
	C814.285400,486.849213 814.086121,487.425812 813.886841,488.002380 
	C813.886841,488.002380 813.976440,487.969391 813.703613,488.142426 
	C813.125061,489.167603 812.819336,490.019775 812.513672,490.871948 
	C812.513672,490.871948 812.551819,490.598816 812.291077,490.755798 
	C811.917053,491.179840 811.864319,491.458344 811.872192,491.748352 
	C803.554688,502.033691 796.041443,513.123474 786.739197,522.423645 
	C771.172791,537.986328 751.989929,547.622559 730.273315,551.920715 
	C729.848328,552.004822 729.452576,552.236755 728.458252,552.632568 
	C748.735413,572.165833 762.540710,595.121643 769.206787,623.038818 
	C773.477478,641.452087 773.781921,659.176208 770.362427,676.966370 
	C770.233887,677.413940 770.105408,677.861511 769.921509,679.016235 
	C769.280151,682.147522 768.694214,684.571655 768.108276,686.995850 
	C760.404663,712.836548 747.385986,735.377075 727.041443,753.416443 
	C711.382935,767.300659 693.348511,776.843018 672.794556,783.392822 
	C669.916138,784.339050 667.714111,784.989075 665.492371,785.562805 
	C654.772888,788.331177 644.106873,792.329956 633.008484,787.095398 
	C633.008484,787.095398 632.615479,786.951111 632.301514,786.713501 
	C631.723999,786.282593 631.460510,786.089294 631.196960,785.895996 
	C627.788025,781.257141 623.741333,776.956726 621.071350,771.925598 
	C600.437439,733.045898 580.070557,694.024475 559.611633,655.051758 
	C559.391174,654.631836 559.045776,654.277527 558.005859,652.883118 
	C558.005859,656.023010 557.874756,658.205750 558.029724,660.368042 
	C558.557556,667.735107 557.197205,674.877869 553.180298,680.899170 
	C545.735229,692.059448 538.273071,703.341370 529.543945,713.475037 
	C520.682007,723.762756 506.888611,723.919983 497.260284,714.208618 
	C490.056976,706.943176 484.241669,698.301453 477.434875,689.767090 
	C476.100616,687.760803 475.139862,686.260132 474.179077,684.759399 
	C474.179077,684.759399 474.120056,684.929138 474.143799,684.634033 
	C473.818634,683.825562 473.469696,683.312134 473.120728,682.798645 
	C473.120758,682.798645 473.071350,682.953369 473.085327,682.658936 
	C472.773102,681.838745 472.446899,681.313049 472.120728,680.787415 
	C472.120697,680.787415 472.078857,680.937439 472.104004,680.636780 
	C471.804901,679.807434 471.480713,679.278748 471.156494,678.750061 
	C471.156494,678.750061 471.139648,678.893677 471.137390,678.516846 
	C469.637360,670.450378 468.139618,662.760620 466.703369,655.386597 
	C465.885437,657.166687 464.804260,659.519653 463.723083,661.872620 
	C463.723083,661.872620 463.842804,661.871094 463.573883,662.000244 
	C463.103668,662.748657 462.902405,663.367859 462.701141,663.987061 
	C462.701141,663.987061 462.888916,663.932861 462.593506,664.027771 
	C462.096466,664.742249 461.894836,665.361877 461.693176,665.981445 
	C461.693176,665.981445 461.871246,665.922852 461.566406,666.046875 
	C458.455231,671.751770 455.648865,677.332703 452.842468,682.913574 
	C452.842438,682.913574 452.920563,682.906494 452.662048,683.057190 
	C452.203339,683.801941 452.003174,684.395996 451.802979,684.990051 
	C451.802979,684.990051 451.943329,684.952515 451.670288,685.068298 
	C451.174438,685.763306 450.951660,686.342529 450.728882,686.921753 
	C439.142334,708.937683 427.589111,730.971313 415.952271,752.960632 
	C411.451233,761.465942 406.760559,769.870850 401.828247,778.837036 
	C401.222778,779.866394 400.945312,780.380249 400.667847,780.894104 
	C399.508759,782.015381 398.349670,783.136658 396.765900,784.645630 
	C395.493256,785.644287 394.645264,786.255249 393.797272,786.866211 
	C393.797272,786.866211 393.943939,786.919373 393.652954,786.905762 
	C392.843628,787.229675 392.325226,787.567139 391.806854,787.904602 
	C391.806854,787.904602 391.928680,787.923889 391.536926,787.918701 
	C386.275574,788.334900 381.276367,789.676270 376.559723,789.011841 
	C359.907349,786.666260 344.351288,780.571594 329.099701,773.692444 
	C329.099701,773.692444 329.114563,773.831177 328.970276,773.547363 
	C326.899170,772.446533 324.972351,771.629517 323.045532,770.812439 
	C323.045532,770.812439 323.004852,770.971497 322.983459,770.721680 
	C322.652435,770.274963 322.342743,770.078064 322.033081,769.881104 
	C321.622833,769.572266 321.212585,769.263489 320.345490,768.651855 
	C317.940918,767.202209 315.993225,766.055359 314.045502,764.908569 
	C314.045502,764.908569 314.043610,764.975342 313.881714,764.718262 
	C313.143494,764.217712 312.567169,763.974182 311.990875,763.730652 
	C311.990875,763.730652 311.984802,763.983643 312.012604,763.702271 
	C311.695831,763.240417 311.351257,763.059937 311.006683,762.879456 
	C311.006683,762.879456 311.037231,762.964233 310.881897,762.682739 
	C309.784241,761.813171 308.841888,761.225037 307.899536,760.636963 
M770.938599,494.326538 
	C771.137329,493.952240 771.336121,493.577972 771.430664,493.417297 
	C771.430664,493.417297 771.646729,493.516327 772.104614,493.114014 
	C772.823792,492.133331 773.542969,491.152649 774.106812,490.051117 
	C774.106812,490.051117 773.987061,490.207428 774.573669,490.051971 
	C774.794983,489.721619 775.016296,489.391266 775.662415,488.915833 
	C775.921204,488.718872 776.047729,488.457794 776.577332,487.796967 
	C777.126770,486.907501 777.676208,486.018066 778.132202,485.128143 
	C778.132202,485.128143 778.135742,485.221527 778.682190,484.903595 
	C778.996277,484.350983 779.310364,483.798370 779.336182,483.045563 
	C779.336182,483.045563 779.137878,483.335144 779.783997,483.191925 
	C779.932007,482.784943 780.080078,482.377960 780.053589,482.065094 
	C780.053589,482.065094 780.149048,482.238922 780.696838,481.900909 
	C780.991394,481.325836 781.286011,480.750763 781.270935,480.018463 
	C781.270935,480.018463 781.115723,480.329132 781.744690,480.174408 
	C781.895203,479.776093 782.045715,479.377777 782.045044,479.043854 
	C782.045044,479.043854 782.110718,479.194427 782.649963,478.828033 
	C782.868164,478.215118 783.086365,477.602203 783.113770,477.072723 
	C783.113770,477.072723 783.199890,477.262299 783.765869,476.853363 
	C790.475525,464.399445 794.550293,451.211792 795.013184,436.053436 
	C795.013184,395.165039 795.013184,354.276611 795.013184,313.337189 
	C792.353638,313.639465 790.211426,313.882935 787.264160,313.970215 
	C784.601807,314.626801 781.972839,315.535706 779.270874,315.893097 
	C770.839111,317.008453 762.278503,317.389740 753.948730,318.994354 
	C718.702881,325.783905 685.639587,338.171143 655.858459,358.563141 
	C622.670776,381.287750 598.356445,411.770050 579.931091,447.060608 
	C573.050659,460.238983 567.870422,474.304993 561.437500,488.504639 
	C561.089844,489.653564 560.742249,490.802490 560.105225,492.241241 
	C559.979065,492.511963 559.992432,492.775635 559.996338,493.955292 
	C559.996338,503.871704 559.996338,513.788086 559.996338,523.794983 
	C561.180603,523.913635 561.819458,524.033691 562.458374,524.033691 
	C609.690735,524.031799 656.924866,524.236145 704.154175,523.853760 
	C715.537598,523.761658 726.847046,521.471130 737.140808,516.427673 
	C737.140808,516.427673 737.191833,516.599670 737.953796,516.405823 
	C741.631226,514.597290 745.308655,512.788696 749.675903,510.875732 
	C754.148926,507.682404 758.621948,504.489075 763.661987,501.048187 
	C764.257812,500.483093 764.853577,499.918030 765.232727,499.209503 
	C765.232727,499.209503 765.093933,499.429199 765.761353,499.250610 
	C765.963684,498.865936 766.165955,498.481262 766.064392,498.252075 
	C766.064392,498.252075 766.222534,498.554596 766.852722,498.323181 
	C767.046997,497.942719 767.241333,497.562225 767.179749,497.340942 
	C767.179749,497.340942 767.343567,497.593903 767.939270,497.330963 
	C768.138184,496.959961 768.337036,496.588959 768.240784,496.309845 
	C768.240784,496.309845 768.340088,496.602570 768.933655,496.337891 
	C769.129517,495.966919 769.325317,495.595978 769.247192,495.329437 
	C769.247192,495.329437 769.358887,495.600586 769.947449,495.337250 
	C770.145752,494.970306 770.343994,494.603394 770.261780,494.298523 
	C770.261780,494.298523 770.331970,494.577118 770.938599,494.326538 
M323.399139,571.982300 
	C323.184509,572.315796 322.969879,572.649292 322.900452,572.908630 
	C322.900452,572.908630 322.823853,572.764648 322.214142,573.047791 
	C319.396057,575.972412 316.577942,578.897034 313.904083,581.900269 
	C313.904083,581.900269 313.980347,581.754822 313.410156,581.947266 
	C313.189301,582.272644 312.968445,582.598022 312.245300,583.148926 
	C311.817932,583.729004 311.390594,584.309021 310.439056,585.231140 
	C309.879883,586.105469 309.320679,586.979797 308.917297,587.938293 
	C308.917297,587.938293 308.999847,587.781616 308.430267,587.965271 
	C308.214386,588.290771 307.998505,588.616211 307.352295,589.114014 
	C307.085083,589.320557 306.960846,589.592346 306.499298,590.305176 
	C306.218903,590.842407 305.938477,591.379578 305.260223,592.055176 
	C305.021851,592.247986 304.913696,592.497253 304.422028,593.180420 
	C303.909485,594.100830 303.396942,595.021240 302.952911,595.938416 
	C302.952911,595.938416 302.926300,595.875183 302.405304,596.284119 
	C301.544312,597.821716 300.683319,599.359375 299.897888,600.891541 
	C299.897888,600.891541 299.889252,600.816284 299.358582,601.181396 
	C299.144897,601.787109 298.931213,602.392883 298.889526,602.938904 
	C298.889526,602.938904 298.827271,602.767822 298.259613,603.168030 
	C290.054901,617.722961 285.617981,633.377441 285.348450,650.054810 
	C285.074280,667.018066 288.333618,683.254883 296.927216,698.089539 
	C296.927216,698.089539 296.857361,698.082642 296.967682,698.759155 
	C297.991089,700.500610 299.014526,702.242004 300.172089,704.658508 
	C317.463165,731.947632 342.505646,748.107605 373.477570,755.808228 
	C376.712128,756.612488 378.519867,755.805908 380.128510,752.674255 
	C388.170929,737.017212 396.509796,721.512695 404.696564,705.929443 
	C421.141541,674.627014 437.555450,643.308228 454.396912,611.451782 
	C456.316742,607.664856 458.236572,603.877930 460.085571,600.097534 
	C460.085571,600.097534 460.100586,600.166992 460.605835,599.789246 
	C460.812317,599.197998 461.018829,598.606812 461.085388,598.055969 
	C461.085388,598.055969 461.127899,598.195251 461.646118,597.822754 
	C461.850616,597.221252 462.055115,596.619751 462.104462,596.061157 
	C462.104462,596.061157 462.149872,596.215576 462.677216,595.848755 
	C462.880371,595.242188 463.083527,594.635620 463.133057,594.074768 
	C463.133057,594.074768 463.181946,594.227417 463.760254,593.756042 
	C464.535828,592.117065 465.952057,590.490112 465.983124,588.837097 
	C466.185394,578.070007 466.087006,567.297241 466.087006,556.526855 
	C465.174255,556.305542 464.714172,556.096313 464.254150,556.096436 
	C426.636902,556.105896 389.018829,556.025085 351.403656,556.316162 
	C347.516266,556.346252 343.646088,558.597961 339.839752,559.835571 
	C339.839752,559.835571 339.837067,559.761841 339.213013,559.911621 
	C337.985474,560.730652 336.757935,561.549683 335.655670,562.872864 
	C335.623505,562.702820 335.591339,562.532837 335.024963,562.630920 
	C334.612610,563.039368 334.200256,563.447815 333.860657,563.860352 
	C333.860657,563.860352 333.860046,563.787476 333.259705,563.983643 
	C332.456512,564.638428 331.653320,565.293152 330.414185,566.049255 
	C330.123322,566.196350 329.955811,566.431335 329.342743,566.964539 
	C328.743896,567.498779 328.145020,568.033081 327.656982,568.581543 
	C327.656982,568.581543 327.659241,568.469849 327.081635,568.735291 
	C326.331696,569.453674 325.581787,570.171997 324.946289,570.927734 
	C324.946289,570.927734 324.981812,570.812744 324.423920,571.020935 
	C324.210358,571.343567 323.996765,571.666260 323.987427,571.973999 
	C323.987427,571.973999 323.971954,571.769775 323.399139,571.982300 
M517.496887,413.470642 
	C517.496887,413.470642 517.606201,413.432556 517.323669,412.984528 
	C517.040894,412.775482 516.758118,412.566437 516.497559,412.469635 
	C516.497559,412.469635 516.605835,412.432465 516.323975,411.983887 
	C516.040955,411.775085 515.757935,411.566254 515.515564,411.327393 
	C515.515564,411.327393 515.499329,411.279541 515.134705,410.771606 
	C514.007446,410.633667 512.408936,409.954681 511.836243,410.453491 
	C509.608582,412.393677 507.706573,414.707733 505.282867,417.022125 
	C505.042999,417.208923 504.918243,417.454254 504.331604,418.084167 
	C503.345123,419.530426 502.358673,420.976685 501.264862,422.495605 
	C501.264862,422.495605 501.321564,422.612183 500.936615,423.203003 
	C499.984528,427.523224 498.296295,431.828918 498.210541,436.166260 
	C497.878357,452.969299 498.041168,469.782440 498.047363,486.591797 
	C498.067505,541.513428 498.108948,596.435120 498.117523,651.356750 
	C498.118774,659.350525 499.613556,666.848816 504.823395,673.166077 
	C504.823395,673.166077 504.739594,673.190796 504.903351,673.798645 
	C505.553070,674.598511 506.202789,675.398438 506.868286,676.127014 
	C506.868286,676.127014 506.795532,676.133362 506.986084,676.729431 
	C507.623016,677.535583 508.259918,678.341675 508.927551,679.055847 
	C508.927551,679.055847 508.834991,679.027039 509.015900,679.596985 
	C509.329865,679.824585 509.643860,680.052185 509.887634,680.122375 
	C509.887634,680.122375 509.731689,680.195740 509.873688,680.710632 
	C510.276001,681.293335 510.678314,681.876099 511.151337,682.800110 
	C511.151337,682.800110 511.453094,682.974548 511.741425,683.531494 
	C512.363159,683.810242 513.450439,684.431274 513.535583,684.315491 
	C514.558838,682.923767 515.433655,681.423035 516.893311,679.616150 
	C519.232849,675.737305 521.572388,671.858521 524.146545,667.560181 
	C524.146545,667.560181 524.244568,667.089722 524.134583,667.106873 
	C524.134583,667.106873 524.155457,667.216248 524.714111,666.740662 
	C525.799377,662.096008 527.817017,657.453979 527.830383,652.806213 
	C528.039185,579.986328 528.052246,507.165497 527.838135,434.345673 
	C527.825745,430.132996 525.484619,425.927185 524.141296,421.904816 
	C524.141296,421.904816 524.329468,421.987457 524.193420,421.346680 
	C523.813721,420.844513 523.433960,420.342377 522.984863,419.406708 
	C522.858398,419.108704 522.634827,418.937500 522.058716,418.328979 
	C521.715576,418.129089 521.372375,417.929199 521.126465,417.991394 
	C521.126465,417.991394 521.388123,417.892914 521.201294,417.312256 
	C520.801514,416.875427 520.401733,416.438568 520.000000,416.000000 
	C520.000000,416.000000 519.999268,415.998627 519.796814,415.477509 
	C519.376648,415.104065 518.956543,414.730621 518.524231,414.438904 
	C518.524231,414.438904 518.606750,414.434265 518.323364,413.985779 
	C518.040100,413.776276 517.756897,413.566803 517.496887,413.470642 
M280.816406,512.672913 
	C281.216919,512.823853 281.617432,512.974731 281.970184,513.020020 
	C281.970184,513.020020 281.864838,513.068359 282.327271,513.607544 
	C297.583191,520.859741 313.662903,524.114258 330.545166,524.073486 
	C374.350159,523.967712 418.155579,524.053833 461.960785,524.001038 
	C463.593201,523.999084 465.224854,523.346069 466.995239,522.069397 
	C467.001312,518.594238 466.685059,515.083191 467.068054,511.650085 
	C468.958221,494.708710 463.655396,479.493225 456.158356,464.892548 
	C456.158356,464.892548 456.293396,464.907410 456.148041,464.179871 
	C454.796021,461.401672 453.444000,458.623444 452.073608,455.913971 
	C452.073608,455.913971 452.143585,455.926880 452.051147,455.245087 
	C451.396851,454.064758 450.742584,452.884460 450.094696,451.171356 
	C449.807709,450.757965 449.520721,450.344604 449.105774,449.293457 
	C448.766571,448.762634 448.427399,448.231781 448.087036,447.167816 
	C447.794037,446.756165 447.501007,446.344482 447.080231,445.277405 
	C446.405914,444.149292 445.731598,443.021179 445.024689,441.951538 
	C445.024689,441.951538 445.091522,441.954620 444.974854,441.315552 
	C444.298492,440.216644 443.622162,439.117737 442.830322,437.331024 
	C410.369141,380.069672 362.530701,342.520508 298.241943,324.902557 
	C291.992920,323.544403 285.743866,322.186279 279.544281,320.890991 
	C279.544281,320.890991 279.605591,320.839661 279.166107,320.145874 
	C263.437439,317.858185 247.708755,315.570526 231.154114,313.506165 
	C231.150986,354.641785 231.147858,395.777374 231.003479,437.765198 
	C231.643906,442.187866 231.995697,446.675354 232.972366,451.022461 
	C238.584900,476.004120 251.849380,495.621399 274.457489,509.146240 
	C274.620148,509.191376 274.782776,509.236481 274.913208,509.121216 
	C274.913208,509.121216 274.753510,509.156525 275.105957,509.693695 
	C276.056061,510.161407 277.006165,510.629120 277.949402,511.029572 
	C277.949402,511.029572 277.885468,511.051636 278.347198,511.562347 
	C279.223053,511.831696 280.098907,512.101074 281.085358,512.129700 
	C281.085358,512.129700 280.844910,512.018433 280.816406,512.672913 
M693.567017,564.393005 
	C693.567017,564.393005 693.474487,564.399414 693.074036,563.981812 
	C692.416443,563.598633 691.758911,563.215454 691.096069,562.904541 
	C691.096069,562.904541 691.164734,562.881653 690.829529,562.349915 
	C689.926453,561.834351 689.023438,561.318787 688.121765,560.875122 
	C688.121765,560.875122 688.192017,560.859680 687.788391,560.284668 
	C682.814880,556.707031 677.133057,556.064453 671.213440,556.070068 
	C635.467224,556.103821 599.720947,556.067810 563.974731,556.073364 
	C562.708923,556.073608 561.443115,556.265076 559.931091,556.387268 
	C559.931091,566.669617 559.799072,576.630615 560.063049,586.581116 
	C560.106262,588.209290 561.894836,589.791199 562.782166,592.097290 
	C564.496765,595.649780 566.113098,599.253662 567.941956,602.746338 
	C579.568726,624.950623 591.253784,647.124451 602.897644,669.319824 
	C617.315857,696.803528 631.759949,724.273926 646.058655,751.819702 
	C647.833923,755.239685 649.497986,756.942566 653.632141,755.360168 
	C658.249878,753.592651 663.262512,752.857788 667.882874,751.095581 
	C699.540222,739.021240 723.077087,718.505615 735.184082,685.292480 
	C744.072327,658.292053 742.130859,632.128967 729.072021,606.948730 
	C729.072021,606.948730 729.199402,606.991516 729.088257,606.365295 
	C728.755371,605.850342 728.422424,605.335388 728.078735,604.902344 
	C728.078735,604.902344 728.160889,604.910522 728.035583,604.222290 
	C726.725586,602.092529 725.415527,599.962708 724.089417,597.901978 
	C724.089417,597.901978 724.160156,597.906921 724.030762,597.349365 
	C723.695496,596.895752 723.360229,596.442139 722.865967,595.321655 
	C715.009583,583.515015 705.515564,573.261719 693.877930,564.622131 
	C693.877930,564.622131 693.591125,564.482544 693.567017,564.393005 
z"/>
<path fill="#116FFD" opacity="1.000000" stroke="none" 
	d="
M202.999542,294.996521 
	C199.787262,300.573853 198.914246,306.769928 198.945068,313.461243 
	C199.128494,353.277374 198.980667,393.094910 199.087875,432.911591 
	C199.104263,438.994171 199.867294,445.074768 200.145172,451.580200 
	C199.004761,445.486603 197.180237,438.974426 197.138062,432.450714 
	C196.875259,391.804321 196.967896,351.155304 197.065109,310.507416 
	C197.078705,304.828339 197.999939,299.237000 202.999542,294.996521 
z"/>
<path fill="#1970FD" opacity="1.000000" stroke="none" 
	d="
M350.763367,308.936920 
	C331.431549,301.256470 311.700317,293.843353 290.968292,289.844666 
	C274.705994,286.708099 258.240753,284.627441 241.871597,282.040222 
	C232.240677,280.518066 222.700363,279.687805 213.426590,285.044312 
	C216.783310,279.453705 222.996628,279.028412 228.529297,279.215576 
	C239.279602,279.579163 250.044235,280.763336 260.705017,282.290924 
	C289.624969,286.434875 317.648254,294.055176 344.705933,305.113983 
	C346.799408,305.969604 348.642120,307.438751 350.763367,308.936920 
z"/>
<path fill="#1465FD" opacity="1.000000" stroke="none" 
	d="
M821.032898,471.758118 
	C826.806030,453.161652 827.164124,433.800354 827.019897,414.301880 
	C826.766418,380.030396 827.117126,345.754089 826.776123,311.484131 
	C826.724060,306.248962 824.322693,301.037140 822.909424,295.462708 
	C827.742737,297.735748 827.924744,302.552582 827.957092,307.135956 
	C828.094360,326.583069 828.027832,346.031647 828.027710,365.479706 
	C828.027527,390.080658 828.513000,414.696350 827.777405,439.275421 
	C827.473511,449.429108 824.564636,459.508026 822.760132,469.606567 
	C822.631897,470.324158 821.839600,470.923065 821.032898,471.758118 
z"/>
<path fill="#1A70FD" opacity="1.000000" stroke="none" 
	d="
M329.251617,774.012146 
	C344.351288,780.571594 359.907349,786.666260 376.559723,789.011841 
	C381.276367,789.676270 386.275574,788.334900 391.545471,787.857605 
	C387.614075,792.818298 381.608246,791.573792 376.559143,790.739685 
	C360.923920,788.156860 345.833496,783.452393 331.619232,776.262756 
	C330.771881,775.834106 330.137177,774.985168 329.251617,774.012146 
z"/>
<path fill="#186FFD" opacity="1.000000" stroke="none" 
	d="
M806.736694,281.929688 
	C794.946716,279.296082 783.124329,282.234222 771.310913,283.484406 
	C762.752258,284.390167 754.308594,286.382721 745.410767,287.881042 
	C747.011841,286.932434 748.937195,285.441071 751.032288,285.142853 
	C766.070740,283.002228 781.120483,280.883881 796.223511,279.300446 
	C799.547974,278.951904 803.100098,280.775269 806.736694,281.929688 
z"/>
<path fill="#186FFD" opacity="1.000000" stroke="none" 
	d="
M770.656067,676.787231 
	C773.781921,659.176208 773.477478,641.452087 769.352539,623.412476 
	C770.117920,624.385742 771.409485,625.646484 771.710876,627.111084 
	C774.818848,642.210999 774.730164,657.417175 772.744934,672.638367 
	C772.565247,674.016235 771.567566,675.287415 770.656067,676.787231 
z"/>
<path fill="#136CFD" opacity="1.000000" stroke="none" 
	d="
M258.412720,615.564453 
	C253.881363,631.331177 252.866074,647.706543 252.961029,664.597839 
	C252.602280,657.207397 251.606598,649.384338 252.204956,641.685181 
	C252.819031,633.783752 254.956802,625.996399 256.529083,618.179565 
	C256.707550,617.292297 257.540771,616.536682 258.412720,615.564453 
z"/>
<path fill="#166FFD" opacity="1.000000" stroke="none" 
	d="
M633.135010,787.422363 
	C644.106873,792.329956 654.772888,788.331177 665.492371,785.562805 
	C667.714111,784.989075 669.916138,784.339050 672.519531,783.607605 
	C672.720154,783.760315 672.587830,784.167480 672.328369,784.279175 
	C661.000549,789.155823 649.449280,792.821167 636.903198,790.053833 
	C635.583984,789.762939 634.470398,788.539917 633.135010,787.422363 
z"/>
<path fill="#1B71FC" opacity="1.000000" stroke="none" 
	d="
M464.034424,661.868530 
	C464.804260,659.519653 465.885437,657.166687 466.703369,655.386597 
	C468.139618,662.760620 469.637360,670.450378 471.209412,678.523376 
	C469.536713,674.417847 467.808228,669.921631 466.030640,665.444946 
	C465.544769,664.221375 464.911377,663.056396 464.034424,661.868530 
z"/>
<path fill="#1B71FC" opacity="1.000000" stroke="none" 
	d="
M453.178955,682.831543 
	C455.648865,677.332703 458.455231,671.751770 461.535583,665.958374 
	C459.044861,671.413757 456.280151,677.081665 453.178955,682.831543 
z"/>
<path fill="#1970FD" opacity="1.000000" stroke="none" 
	d="
M366.826477,316.832153 
	C361.681183,314.679321 356.456543,312.188934 351.009216,309.423126 
	C356.106720,311.596680 361.426910,314.045654 366.826477,316.832153 
z"/>
<path fill="#136CFD" opacity="1.000000" stroke="none" 
	d="
M270.995453,586.007202 
	C268.785004,591.175415 266.225708,596.459961 263.398743,601.976440 
	C265.636292,596.846741 268.141449,591.485107 270.995453,586.007202 
z"/>
<path fill="#136CFD" opacity="1.000000" stroke="none" 
	d="
M262.924591,602.230469 
	C261.795197,606.294067 260.352173,610.530823 258.615662,614.979004 
	C259.751740,610.928162 261.181366,606.665833 262.924591,602.230469 
z"/>
<path fill="#1465FD" opacity="1.000000" stroke="none" 
	d="
M817.085266,481.773560 
	C817.950134,478.713470 819.130310,475.480164 820.579834,472.002747 
	C819.699585,475.039215 818.550049,478.319794 817.085266,481.773560 
z"/>
<path fill="#186FFD" opacity="1.000000" stroke="none" 
	d="
M815.836609,286.924011 
	C813.024902,285.738281 810.134277,284.206818 807.008179,282.414276 
	C809.767761,283.628235 812.762695,285.103271 815.836609,286.924011 
z"/>
<path fill="#186FFD" opacity="1.000000" stroke="none" 
	d="
M768.415588,686.845703 
	C768.694214,684.571655 769.280151,682.147522 769.972351,679.367432 
	C769.626709,681.572876 769.174805,684.134155 768.415588,686.845703 
z"/>
<path fill="#1A70FD" opacity="1.000000" stroke="none" 
	d="
M314.118378,765.259583 
	C315.993225,766.055359 317.940918,767.202209 320.079620,768.631348 
	C318.244141,767.812683 316.217712,766.711609 314.118378,765.259583 
z"/>
<path fill="#136CFD" opacity="1.000000" stroke="none" 
	d="
M254.041931,673.238586 
	C254.760162,675.600708 255.459976,678.393982 256.062836,681.589355 
	C255.318405,679.217590 254.670944,676.443665 254.041931,673.238586 
z"/>
<path fill="#136CFD" opacity="1.000000" stroke="none" 
	d="
M256.044891,683.215271 
	C256.848541,684.917358 257.634613,687.036133 258.526001,689.539185 
	C257.763336,687.826294 256.895325,685.729065 256.044891,683.215271 
z"/>
<path fill="#1A70FD" opacity="1.000000" stroke="none" 
	d="
M323.220459,771.125244 
	C324.972351,771.629517 326.899170,772.446533 329.039368,773.537720 
	C327.300262,773.020630 325.347809,772.229309 323.220459,771.125244 
z"/>
<path fill="#1B71FC" opacity="1.000000" stroke="none" 
	d="
M474.160889,685.141724 
	C475.139862,686.260132 476.100616,687.760803 477.152771,689.589600 
	C476.210297,688.453125 475.176514,686.988586 474.160889,685.141724 
z"/>
<path fill="#1465FD" opacity="1.000000" stroke="none" 
	d="
M815.230835,485.817841 
	C815.383118,484.703064 815.869507,483.464111 816.616333,482.010742 
	C816.439514,483.095459 816.002197,484.394592 815.230835,485.817841 
z"/>
<path fill="#136CFD" opacity="1.000000" stroke="none" 
	d="
M253.038849,666.223877 
	C253.396652,667.601440 253.737289,669.384033 253.991180,671.572266 
	C253.610184,670.194885 253.315933,668.411926 253.038849,666.223877 
z"/>
<path fill="#1970FD" opacity="1.000000" stroke="none" 
	d="
M212.797791,285.105896 
	C212.336594,285.724762 211.526352,286.363312 210.422485,287.112030 
	C210.902176,286.523315 211.675476,285.824432 212.797791,285.105896 
z"/>
<path fill="#1A70FD" opacity="1.000000" stroke="none" 
	d="
M394.151520,786.859619 
	C394.645264,786.255249 395.493256,785.644287 396.638977,784.922852 
	C396.126404,785.492554 395.316071,786.172791 394.151520,786.859619 
z"/>
<path fill="#1A70FD" opacity="1.000000" stroke="none" 
	d="
M308.026855,760.979492 
	C308.841888,761.225037 309.784241,761.813171 310.924103,762.666992 
	C310.132477,762.395752 309.143311,761.858887 308.026855,760.979492 
z"/>
<path fill="#186FFD" opacity="1.000000" stroke="none" 
	d="
M822.861938,294.843567 
	C822.224976,294.387543 821.582214,293.576324 820.829956,292.469055 
	C821.432312,292.944794 822.144287,293.716614 822.861938,294.843567 
z"/>
<path fill="#116FFD" opacity="1.000000" stroke="none" 
	d="
M200.042007,453.219971 
	C200.491364,454.277954 200.928085,455.738739 201.380951,457.612793 
	C200.941193,456.558258 200.485291,455.090515 200.042007,453.219971 
z"/>
<path fill="#116FFD" opacity="1.000000" stroke="none" 
	d="
M201.187515,458.078979 
	C201.545792,458.884827 201.854584,460.069672 202.063812,461.623718 
	C201.688843,460.814636 201.413437,459.636261 201.187515,458.078979 
z"/>
<path fill="#1A70FD" opacity="1.000000" stroke="none" 
	d="
M400.928772,780.853821 
	C400.945312,780.380249 401.222778,779.866394 401.730042,779.169434 
	C401.703156,779.595337 401.446442,780.204468 400.928772,780.853821 
z"/>
<path fill="#1465FD" opacity="1.000000" stroke="none" 
	d="
M812.763306,490.632507 
	C812.819336,490.019775 813.125061,489.167603 813.686768,488.097748 
	C813.632812,488.717712 813.322876,489.555389 812.763306,490.632507 
z"/>
<path fill="#1B71FC" opacity="1.000000" stroke="none" 
	d="
M462.924438,663.752258 
	C462.902405,663.367859 463.103668,662.748657 463.570923,661.940491 
	C463.607147,662.340210 463.377472,662.928833 462.924438,663.752258 
z"/>
<path fill="#1B71FC" opacity="1.000000" stroke="none" 
	d="
M461.919128,665.748413 
	C461.894836,665.361877 462.096466,664.742249 462.565033,663.934265 
	C462.602997,664.335632 462.374023,664.925476 461.919128,665.748413 
z"/>
<path fill="#116FFD" opacity="1.000000" stroke="none" 
	d="
M203.153809,465.945312 
	C203.428055,466.191254 203.752380,466.768890 204.087555,467.695923 
	C203.800201,467.455872 203.502045,466.866425 203.153809,465.945312 
z"/>
<path fill="#116FFD" opacity="1.000000" stroke="none" 
	d="
M202.108353,463.107117 
	C202.418030,463.317139 202.774643,463.833954 203.085480,464.685242 
	C202.744919,464.484467 202.450104,463.949188 202.108353,463.107117 
z"/>
<path fill="#1B71FC" opacity="1.000000" stroke="none" 
	d="
M471.205994,679.064087 
	C471.480713,679.278748 471.804901,679.807434 472.179291,680.656738 
	C471.904816,680.444214 471.580170,679.911194 471.205994,679.064087 
z"/>
<path fill="#1B71FC" opacity="1.000000" stroke="none" 
	d="
M452.012695,684.760681 
	C452.003174,684.395996 452.203339,683.801941 452.657166,683.018311 
	C452.681396,683.396240 452.451904,683.963745 452.012695,684.760681 
z"/>
<path fill="#1B71FC" opacity="1.000000" stroke="none" 
	d="
M472.182770,681.097229 
	C472.446899,681.313049 472.773102,681.838745 473.162964,682.682739 
	C472.899353,682.469666 472.572083,681.938354 472.182770,681.097229 
z"/>
<path fill="#1970FD" opacity="1.000000" stroke="none" 
	d="
M369.168762,317.961792 
	C368.762878,317.971252 368.030640,317.829681 367.057800,317.387848 
	C367.492249,317.328674 368.167358,317.569733 369.168762,317.961792 
z"/>
<path fill="#1B71FC" opacity="1.000000" stroke="none" 
	d="
M473.181335,683.110352 
	C473.469696,683.312134 473.818634,683.825562 474.229187,684.662170 
	C473.941162,684.464233 473.591553,683.943176 473.181335,683.110352 
z"/>
<path fill="#1B71FC" opacity="1.000000" stroke="none" 
	d="
M450.950195,686.706299 
	C450.951660,686.342529 451.174438,685.763306 451.650757,684.998291 
	C451.660034,685.371948 451.415771,685.931396 450.950195,686.706299 
z"/>
<path fill="#1A70FD" opacity="1.000000" stroke="none" 
	d="
M312.220795,763.941162 
	C312.567169,763.974182 313.143494,764.217712 313.913696,764.708740 
	C313.555298,764.687988 313.003021,764.419861 312.220795,763.941162 
z"/>
<path fill="#166FFD" opacity="1.000000" stroke="none" 
	d="
M631.148254,786.068909 
	C631.460510,786.089294 631.723999,786.282593 632.092285,786.706665 
	C631.831177,786.705566 631.465332,786.473694 631.148254,786.068909 
z"/>
<path fill="#1A70FD" opacity="1.000000" stroke="none" 
	d="
M392.113464,787.834473 
	C392.325226,787.567139 392.843628,787.229675 393.678589,786.832153 
	C393.470123,787.102844 392.945068,787.433594 392.113464,787.834473 
z"/>
<path fill="#1465FD" opacity="1.000000" stroke="none" 
	d="
M812.047485,491.772888 
	C811.864319,491.458344 811.917053,491.179840 812.154358,490.737976 
	C812.259888,490.974579 812.241394,491.385986 812.047485,491.772888 
z"/>
<path fill="#1465FD" opacity="1.000000" stroke="none" 
	d="
M814.073853,487.766418 
	C814.086121,487.425812 814.285400,486.849213 814.721191,486.073303 
	C814.725403,486.426117 814.493103,486.978271 814.073853,487.766418 
z"/>
<path fill="#1970FD" opacity="1.000000" stroke="none" 
	d="
M209.993484,287.177307 
	C209.989029,287.306305 209.791336,287.629944 209.322296,288.063782 
	C209.300705,287.906647 209.550461,287.639282 209.993484,287.177307 
z"/>
<path fill="#1A70FD" opacity="1.000000" stroke="none" 
	d="
M322.207581,770.082520 
	C322.342743,770.078064 322.652435,770.274963 323.063049,770.741821 
	C322.903381,770.769165 322.642731,770.526611 322.207581,770.082520 
z"/>
<path fill="#186FFD" opacity="1.000000" stroke="none" 
	d="
M820.804443,291.971069 
	C820.678650,291.971375 820.340271,291.795990 819.874084,291.347260 
	C820.028198,291.314392 820.310059,291.554901 820.804443,291.971069 
z"/>
<path fill="#1A70FD" opacity="1.000000" stroke="none" 
	d="
M311.202515,763.074951 
	C311.351257,763.059937 311.695831,763.240417 312.139099,763.705139 
	C311.957977,763.749756 311.678162,763.510132 311.202515,763.074951 
z"/>
<path fill="#277FFD" opacity="1.000000" stroke="none" 
	d="
M298.978912,325.114471 
	C362.530701,342.520508 410.369141,380.069672 442.738831,437.923889 
	C443.462067,439.662720 444.276794,440.808655 445.091522,441.954620 
	C445.091522,441.954620 445.024689,441.951538 445.046234,442.296021 
	C445.781189,443.737976 446.494598,444.835388 447.207977,445.932831 
	C447.501007,446.344482 447.794037,446.756165 448.157959,447.747803 
	C448.563843,448.862244 448.898804,449.396759 449.233734,449.931244 
	C449.520721,450.344604 449.807709,450.757965 450.082703,451.820526 
	C450.761658,453.622070 451.452637,454.774475 452.143585,455.926880 
	C452.143585,455.926880 452.073608,455.913971 452.073761,456.277649 
	C453.480408,459.396698 454.886902,462.152039 456.293396,464.907410 
	C456.293396,464.907410 456.158356,464.892548 456.133667,465.236725 
	C457.139801,468.883606 458.183777,472.182281 459.198639,475.489868 
	C461.138885,481.813782 464.102264,488.039032 464.746490,494.494293 
	C465.683136,503.880096 464.943024,513.433228 464.454529,522.924744 
	C419.132080,522.635681 374.273132,522.158325 329.413940,522.138855 
	C314.546875,522.132446 300.337036,519.896057 286.703339,513.950684 
	C285.240448,513.312744 283.484711,513.346313 281.864838,513.068359 
	C281.864838,513.068359 281.970184,513.020020 281.783264,512.899292 
	C281.345886,512.525208 281.095398,512.271790 280.844910,512.018433 
	C280.844910,512.018433 281.085358,512.129700 280.771515,512.021545 
	C279.600281,511.626160 278.742859,511.338898 277.885468,511.051636 
	C277.885468,511.051636 277.949402,511.029572 277.839874,510.737915 
	C276.738068,510.016327 275.745789,509.586426 274.753510,509.156525 
	C274.753510,509.156525 274.913208,509.121216 274.829681,509.099915 
	C274.557434,508.858307 274.316864,508.793365 274.024475,508.883789 
	C251.849380,495.621399 238.584900,476.004120 232.972366,451.022461 
	C231.995697,446.675354 231.643906,442.187866 231.261749,436.981537 
	C231.679352,433.889038 231.974289,431.580444 231.977798,429.271362 
	C232.035477,391.201752 232.056458,353.132080 232.519867,315.047150 
	C240.665924,315.866119 248.389999,316.602753 256.086334,317.561859 
	C263.940277,318.540619 271.766968,319.738007 279.605591,320.839661 
	C279.605591,320.839661 279.544281,320.890991 279.865021,321.058685 
	C286.450134,322.522430 292.714539,323.818451 298.978912,325.114471 
z"/>
<path fill="#277FFD" opacity="1.000000" stroke="none" 
	d="
M763.095032,501.295746 
	C758.621948,504.489075 754.148926,507.682404 749.069946,510.772827 
	C744.706543,512.646484 740.949158,514.623047 737.191833,516.599670 
	C737.191833,516.599670 737.140808,516.427673 736.820801,516.343140 
	C735.359619,516.442322 734.153931,516.448669 733.087036,516.836670 
	C719.244324,521.871155 704.749329,522.775635 690.287598,522.874634 
	C649.630249,523.152954 608.969727,522.976318 568.310486,522.973877 
	C561.048767,522.973450 561.155457,522.959778 561.000427,515.872681 
	C560.833801,508.256622 560.439941,500.645477 560.145264,493.032196 
	C559.992432,492.775635 559.979065,492.511963 560.528076,491.924744 
	C561.272278,490.394257 561.593628,489.180267 561.914978,487.966278 
	C567.870422,474.304993 573.050659,460.238983 579.931091,447.060608 
	C598.356445,411.770050 622.670776,381.287750 655.858459,358.563141 
	C685.639587,338.171143 718.702881,325.783905 753.948730,318.994354 
	C762.278503,317.389740 770.839111,317.008453 779.270874,315.893097 
	C781.972839,315.535706 784.601807,314.626801 787.990662,314.238953 
	C793.300110,314.607361 794.112854,317.240479 794.098083,321.351593 
	C793.959656,359.899445 794.005188,398.447968 793.788208,437.338257 
	C792.387695,450.318542 789.389771,462.455353 783.693481,473.872375 
	C783.209351,474.842865 783.349670,476.124969 783.199890,477.262299 
	C783.199890,477.262299 783.113770,477.072723 782.988647,477.267578 
	C782.612610,478.039734 782.361633,478.617065 782.110718,479.194397 
	C782.110718,479.194427 782.045044,479.043854 781.936523,479.235962 
	C781.590637,479.728424 781.353210,480.028778 781.115723,480.329163 
	C781.115723,480.329132 781.270935,480.018463 781.151001,480.285889 
	C780.737000,481.115173 780.443054,481.677032 780.149048,482.238922 
	C780.149048,482.238922 780.053589,482.065094 779.961792,482.249146 
	C779.625977,482.733856 779.381958,483.034515 779.137878,483.335144 
	C779.137878,483.335144 779.336182,483.045563 779.196594,483.315308 
	C778.749939,484.130554 778.442810,484.676025 778.135742,485.221527 
	C778.135742,485.221527 778.132202,485.128143 777.846802,485.216064 
	C777.054932,486.246857 776.548462,487.189728 776.042053,488.132599 
	C776.047729,488.457794 775.921204,488.718872 775.233765,489.171570 
	C774.532349,489.687317 774.259705,489.947357 773.987061,490.207428 
	C773.987061,490.207428 774.106812,490.051117 773.823608,490.153625 
	C772.909241,491.342865 772.277954,492.429596 771.646729,493.516327 
	C771.646729,493.516327 771.430664,493.417297 771.254395,493.515137 
	C770.829468,493.934326 770.580688,494.255707 770.331970,494.577118 
	C770.331970,494.577118 770.261780,494.298523 770.173401,494.467896 
	C769.842957,494.958344 769.600891,495.279449 769.358887,495.600586 
	C769.358887,495.600586 769.247192,495.329437 769.159302,495.482849 
	C768.827637,495.958344 768.583862,496.280457 768.340088,496.602570 
	C768.340088,496.602570 768.240784,496.309845 768.160034,496.467651 
	C767.834045,496.948273 767.588806,497.271088 767.343567,497.593903 
	C767.343567,497.593903 767.179749,497.340942 767.094238,497.479431 
	C766.746643,497.930145 766.484558,498.242340 766.222534,498.554565 
	C766.222534,498.554596 766.064392,498.252075 766.006470,498.396301 
	C765.663696,498.836761 765.378784,499.132965 765.093933,499.429199 
	C765.093933,499.429199 765.232727,499.209503 764.997803,499.309753 
	C764.206848,500.038574 763.650940,500.667175 763.095032,501.295746 
z"/>
<path fill="#277FFD" opacity="1.000000" stroke="none" 
	d="
M310.963226,584.889099 
	C311.390594,584.309021 311.817932,583.729004 312.719360,582.861328 
	C313.455750,582.300720 313.718048,582.027771 313.980347,581.754822 
	C313.980347,581.754822 313.904083,581.900269 314.184692,581.830627 
	C317.251465,578.762207 320.037659,575.763428 322.823853,572.764648 
	C322.823853,572.764648 322.900452,572.908630 323.042450,572.755737 
	C323.446960,572.325073 323.709442,572.047424 323.971924,571.769775 
	C323.971954,571.769775 323.987427,571.973999 324.096893,571.797607 
	C324.464844,571.351807 324.723328,571.082275 324.981812,570.812744 
	C324.981812,570.812744 324.946289,570.927734 325.226379,570.860229 
	C326.224060,570.018494 326.941650,569.244141 327.659241,568.469849 
	C327.659241,568.469849 327.656982,568.581543 327.937866,568.564392 
	C328.783051,567.949585 329.347321,567.351929 329.911621,566.754272 
	C329.955811,566.431335 330.123322,566.196350 330.979919,565.973938 
	C332.317108,565.194885 333.088593,564.491211 333.860046,563.787476 
	C333.860046,563.787476 333.860657,563.860352 334.123108,563.782104 
	C334.776794,563.256836 335.167999,562.809875 335.559204,562.362915 
	C335.591339,562.532837 335.623505,562.702820 335.961548,562.695557 
	C337.457275,561.599426 338.647186,560.680603 339.837067,559.761841 
	C339.837067,559.761841 339.839752,559.835571 340.207520,559.841919 
	C351.728973,559.399292 362.882477,558.945923 374.036469,558.503906 
	C377.171967,558.379639 380.311066,558.155579 383.444580,558.208862 
	C391.041138,558.338013 398.636871,558.823486 406.230164,558.769592 
	C424.111633,558.642700 441.992889,558.351074 459.870850,557.968689 
	C463.837158,557.883911 465.251648,559.475952 465.003357,563.284058 
	C464.331146,573.594238 463.780701,583.912415 463.181946,594.227417 
	C463.181946,594.227417 463.133057,594.074768 462.983429,594.277588 
	C462.605835,595.058777 462.377869,595.637146 462.149902,596.215576 
	C462.149872,596.215576 462.104462,596.061157 461.960754,596.266968 
	C461.587311,597.046936 461.357635,597.621094 461.127930,598.195251 
	C461.127899,598.195251 461.085388,598.055969 460.939087,598.261475 
	C460.562073,599.033691 460.331360,599.600342 460.100586,600.166992 
	C460.100586,600.166992 460.085571,600.097534 459.786011,600.179810 
	C457.651703,604.173462 455.816895,608.084839 453.982117,611.996216 
	C437.555450,643.308228 421.141541,674.627014 404.696564,705.929443 
	C396.509796,721.512695 388.170929,737.017212 380.128510,752.674255 
	C378.519867,755.805908 376.712128,756.612488 373.477570,755.808228 
	C342.505646,748.107605 317.463165,731.947632 300.257477,704.061584 
	C299.181030,701.670654 298.019196,699.876648 296.857361,698.082642 
	C296.857361,698.082642 296.927216,698.089539 296.925598,697.719971 
	C296.470703,695.607178 296.249176,693.761230 295.529449,692.135925 
	C284.414581,667.035950 284.162079,641.732544 293.914429,616.194946 
	C295.614532,611.743042 297.192719,607.244690 298.827271,602.767822 
	C298.827271,602.767822 298.889526,602.938904 299.026184,602.738586 
	C299.404968,601.964294 299.647095,601.390259 299.889252,600.816284 
	C299.889252,600.816284 299.897888,600.891541 300.203400,600.809204 
	C301.314728,599.109619 302.120514,597.492432 302.926331,595.875183 
	C302.926300,595.875183 302.952911,595.938416 303.243103,595.828430 
	C304.000793,594.746643 304.468323,593.774780 304.935822,592.802979 
	C304.913696,592.497253 305.021851,592.247986 305.690857,591.787476 
	C306.407501,590.989624 306.693512,590.459534 306.979553,589.929504 
	C306.960846,589.592346 307.085083,589.320557 307.784180,588.849731 
	C308.477325,588.317505 308.738586,588.049561 308.999878,587.781616 
	C308.999847,587.781616 308.917297,587.938293 309.171295,587.812134 
	C309.937958,586.753662 310.450592,585.821411 310.963226,584.889099 
z"/>
<path fill="#277FFD" opacity="1.000000" stroke="none" 
	d="
M734.905273,685.981567 
	C723.077087,718.505615 699.540222,739.021240 667.882874,751.095581 
	C663.262512,752.857788 658.249878,753.592651 653.632141,755.360168 
	C649.497986,756.942566 647.833923,755.239685 646.058655,751.819702 
	C631.759949,724.273926 617.315857,696.803528 602.897644,669.319824 
	C591.253784,647.124451 579.568726,624.950623 567.941956,602.746338 
	C566.113098,599.253662 564.496765,595.649780 562.781067,591.307312 
	C562.520996,581.401245 562.352661,572.281189 561.960693,563.170837 
	C561.791931,559.246826 563.393311,557.910339 567.231201,557.963623 
	C578.476746,558.119873 589.726624,557.937195 600.973450,558.040161 
	C611.907471,558.140198 622.845276,558.747742 633.771790,558.563843 
	C651.969482,558.257446 670.213135,556.183716 688.192017,560.859680 
	C688.192017,560.859680 688.121765,560.875122 688.214844,561.168213 
	C689.260132,561.934753 690.212463,562.408203 691.164734,562.881653 
	C691.164734,562.881653 691.096069,562.904541 691.198486,563.178345 
	C692.025452,563.767883 692.749939,564.083618 693.474487,564.399414 
	C693.474487,564.399414 693.567017,564.393005 693.561218,564.550659 
	C693.555420,564.708374 693.705383,564.952332 693.705383,564.952332 
	C693.705383,564.952332 694.018372,564.908508 694.018372,564.908508 
	C705.515564,573.261719 715.009583,583.515015 722.818726,595.863831 
	C723.234436,596.906311 723.697266,597.406616 724.160156,597.906921 
	C724.160156,597.906921 724.089417,597.901978 724.099121,598.250244 
	C725.459473,600.702515 726.810181,602.806519 728.160889,604.910522 
	C728.160889,604.910522 728.078735,604.902344 728.151245,605.166077 
	C728.548950,605.950378 728.874146,606.470947 729.199402,606.991516 
	C729.199402,606.991516 729.072021,606.948730 729.075012,607.289978 
	C729.456116,609.226440 729.801697,610.830261 730.217529,612.415588 
	C733.103027,623.414734 737.360535,634.269653 738.516663,645.446106 
	C739.672119,656.615723 739.130432,668.231323 735.492004,679.302063 
	C734.812500,681.369507 735.076660,683.747131 734.905273,685.981567 
z"/>
<path fill="#277FFD" opacity="1.000000" stroke="none" 
	d="
M523.911987,667.979675 
	C521.572388,671.858521 519.232849,675.737305 516.227173,679.905518 
	C514.191772,681.121460 512.822449,682.048035 511.453094,682.974548 
	C511.453094,682.974548 511.151337,682.800110 511.199463,682.321533 
	C510.742279,681.293823 510.237000,680.744812 509.731689,680.195740 
	C509.731689,680.195740 509.887634,680.122375 509.750854,679.978088 
	C509.354370,679.564880 509.094696,679.295959 508.834991,679.027039 
	C508.834991,679.027039 508.927551,679.055847 508.898682,678.754395 
	C508.178406,677.679810 507.486969,676.906555 506.795532,676.133362 
	C506.795532,676.133362 506.868286,676.127014 506.857117,675.810059 
	C506.143829,674.725647 505.441711,673.958191 504.739594,673.190796 
	C504.739594,673.190796 504.823395,673.166077 504.828400,672.814087 
	C497.618896,658.192566 500.134613,642.826416 500.092133,627.836731 
	C499.912292,564.345642 499.987000,500.853699 500.072266,437.362183 
	C500.078857,432.444977 500.886353,427.528839 501.321564,422.612183 
	C501.321564,422.612183 501.264862,422.495605 501.675201,422.421478 
	C503.026550,420.817627 503.967590,419.287872 504.908600,417.758148 
	C504.918243,417.454254 505.042999,417.208923 505.844360,416.908264 
	C509.436981,414.956146 512.468140,413.117859 515.499329,411.279541 
	C515.499329,411.279541 515.515564,411.327393 515.620422,411.585297 
	C516.018799,412.039642 516.312317,412.236053 516.605835,412.432465 
	C516.605835,412.432465 516.497559,412.469635 516.611572,412.656433 
	C517.019104,413.039703 517.312683,413.236115 517.606201,413.432556 
	C517.606201,413.432556 517.496887,413.470642 517.610962,413.657104 
	C518.018982,414.040466 518.312866,414.237366 518.606750,414.434265 
	C518.606750,414.434265 518.524231,414.438904 518.610596,414.682739 
	C519.131042,415.283936 519.565125,415.641296 519.999268,415.998627 
	C519.999268,415.998627 520.000000,416.000000 520.102539,416.281921 
	C520.599487,417.006866 520.993835,417.449890 521.388123,417.892914 
	C521.388123,417.892914 521.126465,417.991394 521.280273,418.066223 
	C521.727478,418.391724 522.020813,418.642456 522.314148,418.893158 
	C522.634827,418.937500 522.858398,419.108704 523.105591,419.928680 
	C523.594116,420.962921 523.961792,421.475189 524.329468,421.987457 
	C524.329468,421.987457 524.141296,421.904816 524.154907,422.228821 
	C524.772705,425.971893 525.943298,429.398499 525.897827,432.808929 
	C524.856079,510.941559 528.335876,589.108643 524.155457,667.216248 
	C524.155457,667.216248 524.134583,667.106873 524.082336,667.182983 
	C523.824890,667.462524 523.785522,667.702698 523.911987,667.979675 
z"/>
<path fill="#207BFD" opacity="1.000000" stroke="none" 
	d="
M501.129089,422.907593 
	C500.886353,427.528839 500.078857,432.444977 500.072266,437.362183 
	C499.987000,500.853699 499.912292,564.345642 500.092133,627.836731 
	C500.134613,642.826416 497.618896,658.192566 504.810974,672.854126 
	C499.613556,666.848816 498.118774,659.350525 498.117523,651.356750 
	C498.108948,596.435120 498.067505,541.513428 498.047363,486.591797 
	C498.041168,469.782440 497.878357,452.969299 498.210541,436.166260 
	C498.296295,431.828918 499.984528,427.523224 501.129089,422.907593 
z"/>
<path fill="#1677FC" opacity="1.000000" stroke="none" 
	d="
M524.434814,666.978455 
	C528.335876,589.108643 524.856079,510.941559 525.897827,432.808929 
	C525.943298,429.398499 524.772705,425.971893 524.197876,422.135498 
	C525.484619,425.927185 527.825745,430.132996 527.838135,434.345673 
	C528.052246,507.165497 528.039185,579.986328 527.830383,652.806213 
	C527.817017,657.453979 525.799377,662.096008 524.434814,666.978455 
z"/>
<path fill="#2079FD" opacity="1.000000" stroke="none" 
	d="
M687.990234,560.572144 
	C670.213135,556.183716 651.969482,558.257446 633.771790,558.563843 
	C622.845276,558.747742 611.907471,558.140198 600.973450,558.040161 
	C589.726624,557.937195 578.476746,558.119873 567.231201,557.963623 
	C563.393311,557.910339 561.791931,559.246826 561.960693,563.170837 
	C562.352661,572.281189 562.520996,581.401245 562.828308,590.955933 
	C561.894836,589.791199 560.106262,588.209290 560.063049,586.581116 
	C559.799072,576.630615 559.931091,566.669617 559.931091,556.387268 
	C561.443115,556.265076 562.708923,556.073608 563.974731,556.073364 
	C599.720947,556.067810 635.467224,556.103821 671.213440,556.070068 
	C677.133057,556.064453 682.814880,556.707031 687.990234,560.572144 
z"/>
<path fill="#2078FD" opacity="1.000000" stroke="none" 
	d="
M463.471100,593.991699 
	C463.780701,583.912415 464.331146,573.594238 465.003357,563.284058 
	C465.251648,559.475952 463.837158,557.883911 459.870850,557.968689 
	C441.992889,558.351074 424.111633,558.642700 406.230164,558.769592 
	C398.636871,558.823486 391.041138,558.338013 383.444580,558.208862 
	C380.311066,558.155579 377.171967,558.379639 374.036469,558.503906 
	C362.882477,558.945923 351.728973,559.399292 340.171600,559.833618 
	C343.646088,558.597961 347.516266,556.346252 351.403656,556.316162 
	C389.018829,556.025085 426.636902,556.105896 464.254150,556.096436 
	C464.714172,556.096313 465.174255,556.305542 466.087006,556.526855 
	C466.087006,567.297241 466.185394,578.070007 465.983124,588.837097 
	C465.952057,590.490112 464.535828,592.117065 463.471100,593.991699 
z"/>
<path fill="#1366FD" opacity="1.000000" stroke="none" 
	d="
M560.070801,493.493744 
	C560.439941,500.645477 560.833801,508.256622 561.000427,515.872681 
	C561.155457,522.959778 561.048767,522.973450 568.310486,522.973877 
	C608.969727,522.976318 649.630249,523.152954 690.287598,522.874634 
	C704.749329,522.775635 719.244324,521.871155 733.087036,516.836670 
	C734.153931,516.448669 735.359619,516.442322 736.907776,516.321167 
	C726.847046,521.471130 715.537598,523.761658 704.154175,523.853760 
	C656.924866,524.236145 609.690735,524.031799 562.458374,524.033691 
	C561.819458,524.033691 561.180603,523.913635 559.996338,523.794983 
	C559.996338,513.788086 559.996338,503.871704 560.070801,493.493744 
z"/>
<path fill="#1366FD" opacity="1.000000" stroke="none" 
	d="
M282.096069,513.337952 
	C283.484711,513.346313 285.240448,513.312744 286.703339,513.950684 
	C300.337036,519.896057 314.546875,522.132446 329.413940,522.138855 
	C374.273132,522.158325 419.132080,522.635681 464.778412,522.945740 
	C465.996063,522.970215 466.426453,522.983337 466.856842,522.996460 
	C465.224854,523.346069 463.593201,523.999084 461.960785,524.001038 
	C418.155579,524.053833 374.350159,523.967712 330.545166,524.073486 
	C313.662903,524.114258 297.583191,520.859741 282.096069,513.337952 
z"/>
<path fill="#1E73FD" opacity="1.000000" stroke="none" 
	d="
M298.543427,602.967896 
	C297.192719,607.244690 295.614532,611.743042 293.914429,616.194946 
	C284.162079,641.732544 284.414581,667.035950 295.529449,692.135925 
	C296.249176,693.761230 296.470703,695.607178 296.912506,697.752563 
	C288.333618,683.254883 285.074280,667.018066 285.348450,650.054810 
	C285.617981,633.377441 290.054901,617.722961 298.543427,602.967896 
z"/>
<path fill="#1C71FD" opacity="1.000000" stroke="none" 
	d="
M735.044678,685.637024 
	C735.076660,683.747131 734.812500,681.369507 735.492004,679.302063 
	C739.130432,668.231323 739.672119,656.615723 738.516663,645.446106 
	C737.360535,634.269653 733.103027,623.414734 730.217529,612.415588 
	C729.801697,610.830261 729.456116,609.226440 729.097290,607.226624 
	C742.130859,632.128967 744.072327,658.292053 735.044678,685.637024 
z"/>
<path fill="#0C53FD" opacity="1.000000" stroke="none" 
	d="
M793.997620,436.996277 
	C794.005188,398.447968 793.959656,359.899445 794.098083,321.351593 
	C794.112854,317.240479 793.300110,314.607361 788.393188,314.317078 
	C790.211426,313.882935 792.353638,313.639465 795.013184,313.337189 
	C795.013184,354.276611 795.013184,395.165039 794.723511,436.520996 
	C794.433777,436.988525 793.997620,436.996277 793.997620,436.996277 
z"/>
<path fill="#0E55FD" opacity="1.000000" stroke="none" 
	d="
M232.085693,315.062439 
	C232.056458,353.132080 232.035477,391.201752 231.977798,429.271362 
	C231.974289,431.580444 231.679352,433.889038 231.332382,436.555420 
	C231.147858,395.777374 231.150986,354.641785 231.572815,313.691345 
	C232.022903,314.271820 232.054306,314.667114 232.085693,315.062439 
z"/>
<path fill="#1871FC" opacity="1.000000" stroke="none" 
	d="
M466.926025,522.532959 
	C466.426453,522.983337 465.996063,522.970215 465.241821,522.936035 
	C464.943024,513.433228 465.683136,503.880096 464.746490,494.494293 
	C464.102264,488.039032 461.138885,481.813782 459.198639,475.489868 
	C458.183777,472.182281 457.139801,468.883606 456.143188,465.169495 
	C463.655396,479.493225 468.958221,494.708710 467.068054,511.650085 
	C466.685059,515.083191 467.001312,518.594238 466.926025,522.532959 
z"/>
<path fill="#166EFD" opacity="1.000000" stroke="none" 
	d="
M232.519867,315.047150 
	C232.054306,314.667114 232.022903,314.271820 231.985794,313.579651 
	C247.708755,315.570526 263.437439,317.858185 279.385864,320.492767 
	C271.766968,319.738007 263.940277,318.540619 256.086334,317.561859 
	C248.389999,316.602753 240.665924,315.866119 232.519867,315.047150 
z"/>
<path fill="#1971FC" opacity="1.000000" stroke="none" 
	d="
M793.788208,437.338257 
	C793.997620,436.996277 794.433777,436.988525 794.651855,436.983459 
	C794.550293,451.211792 790.475525,464.399445 783.482910,477.057831 
	C783.349670,476.124969 783.209351,474.842865 783.693481,473.872375 
	C789.389771,462.455353 792.387695,450.318542 793.788208,437.338257 
z"/>
<path fill="#166EFD" opacity="1.000000" stroke="none" 
	d="
M298.610413,325.008514 
	C292.714539,323.818451 286.450134,322.522430 279.840302,321.027252 
	C285.743866,322.186279 291.992920,323.544403 298.610413,325.008514 
z"/>
<path fill="#207BFD" opacity="1.000000" stroke="none" 
	d="
M515.317017,411.025574 
	C512.468140,413.117859 509.436981,414.956146 506.044617,416.838562 
	C507.706573,414.707733 509.608582,412.393677 511.836243,410.453491 
	C512.408936,409.954681 514.007446,410.633667 515.317017,411.025574 
z"/>
<path fill="#2078FD" opacity="1.000000" stroke="none" 
	d="
M322.518982,572.906250 
	C320.037659,575.763428 317.251465,578.762207 314.112549,581.791321 
	C316.577942,578.897034 319.396057,575.972412 322.518982,572.906250 
z"/>
<path fill="#2078FD" opacity="1.000000" stroke="none" 
	d="
M454.189514,611.723999 
	C455.816895,608.084839 457.651703,604.173462 459.821442,600.176514 
	C458.236572,603.877930 456.316742,607.664856 454.189514,611.723999 
z"/>
<path fill="#1366FD" opacity="1.000000" stroke="none" 
	d="
M737.572815,516.502747 
	C740.949158,514.623047 744.706543,512.646484 748.724976,510.825043 
	C745.308655,512.788696 741.631226,514.597290 737.572815,516.502747 
z"/>
<path fill="#1871FC" opacity="1.000000" stroke="none" 
	d="
M456.220703,464.543640 
	C454.886902,462.152039 453.480408,459.396698 452.082947,456.243286 
	C453.444000,458.623444 454.796021,461.401672 456.220703,464.543640 
z"/>
<path fill="#1C71FD" opacity="1.000000" stroke="none" 
	d="
M728.098267,604.566406 
	C726.810181,602.806519 725.459473,600.702515 724.107178,598.215698 
	C725.415527,599.962708 726.725586,602.092529 728.098267,604.566406 
z"/>
<path fill="#1E73FD" opacity="1.000000" stroke="none" 
	d="
M296.912537,698.420898 
	C298.019196,699.876648 299.181030,701.670654 300.190430,703.724060 
	C299.014526,702.242004 297.991089,700.500610 296.912537,698.420898 
z"/>
<path fill="#207BFD" opacity="1.000000" stroke="none" 
	d="
M511.597260,683.253052 
	C512.822449,682.048035 514.191772,681.121460 515.954102,680.072876 
	C515.433655,681.423035 514.558838,682.923767 513.535583,684.315491 
	C513.450439,684.431274 512.363159,683.810242 511.597260,683.253052 
z"/>
<path fill="#1E73FD" opacity="1.000000" stroke="none" 
	d="
M302.665833,596.079651 
	C302.120514,597.492432 301.314728,599.109619 300.165619,600.811890 
	C300.683319,599.359375 301.544312,597.821716 302.665833,596.079651 
z"/>
<path fill="#207BFD" opacity="1.000000" stroke="none" 
	d="
M504.620117,417.921143 
	C503.967590,419.287872 503.026550,420.817627 501.728882,422.385132 
	C502.358673,420.976685 503.345123,419.530426 504.620117,417.921143 
z"/>
<path fill="#1871FC" opacity="1.000000" stroke="none" 
	d="
M445.033203,441.635071 
	C444.276794,440.808655 443.462067,439.662720 442.796570,438.267792 
	C443.622162,439.117737 444.298492,440.216644 445.033203,441.635071 
z"/>
<path fill="#2078FD" opacity="1.000000" stroke="none" 
	d="
M339.525024,559.836731 
	C338.647186,560.680603 337.457275,561.599426 335.898895,562.443481 
	C336.757935,561.549683 337.985474,560.730652 339.525024,559.836731 
z"/>
<path fill="#1971FC" opacity="1.000000" stroke="none" 
	d="
M771.875671,493.315186 
	C772.277954,492.429596 772.909241,491.342865 773.901367,490.214050 
	C773.542969,491.152649 772.823792,492.133331 771.875671,493.315186 
z"/>
<path fill="#1871FC" opacity="1.000000" stroke="none" 
	d="
M447.144104,445.605103 
	C446.494598,444.835388 445.781189,443.737976 445.062500,442.266815 
	C445.731598,443.021179 446.405914,444.149292 447.144104,445.605103 
z"/>
<path fill="#1871FC" opacity="1.000000" stroke="none" 
	d="
M452.097351,455.585999 
	C451.452637,454.774475 450.761658,453.622070 450.079468,452.086914 
	C450.742584,452.884460 451.396851,454.064758 452.097351,455.585999 
z"/>
<path fill="#1366FD" opacity="1.000000" stroke="none" 
	d="
M561.676270,488.235474 
	C561.593628,489.180267 561.272278,490.394257 560.672791,491.779846 
	C560.742249,490.802490 561.089844,489.653564 561.676270,488.235474 
z"/>
<path fill="#2078FD" opacity="1.000000" stroke="none" 
	d="
M333.559875,563.885559 
	C333.088593,564.491211 332.317108,565.194885 331.197876,565.923218 
	C331.653320,565.293152 332.456512,564.638428 333.559875,563.885559 
z"/>
<path fill="#2079FD" opacity="1.000000" stroke="none" 
	d="
M690.997131,562.615784 
	C690.212463,562.408203 689.260132,561.934753 688.214111,561.132263 
	C689.023438,561.318787 689.926453,561.834351 690.997131,562.615784 
z"/>
<path fill="#207BFD" opacity="1.000000" stroke="none" 
	d="
M506.890808,676.431396 
	C507.486969,676.906555 508.178406,677.679810 508.883301,678.800415 
	C508.259918,678.341675 507.623016,677.535583 506.890808,676.431396 
z"/>
<path fill="#207BFD" opacity="1.000000" stroke="none" 
	d="
M504.821472,673.494751 
	C505.441711,673.958191 506.143829,674.725647 506.849243,675.845703 
	C506.202789,675.398438 505.553070,674.598511 504.821472,673.494751 
z"/>
<path fill="#1E73FD" opacity="1.000000" stroke="none" 
	d="
M310.701141,585.060120 
	C310.450592,585.821411 309.937958,586.753662 309.093384,587.770020 
	C309.320679,586.979797 309.879883,586.105469 310.701141,585.060120 
z"/>
<path fill="#1E73FD" opacity="1.000000" stroke="none" 
	d="
M304.678925,592.991699 
	C304.468323,593.774780 304.000793,594.746643 303.208832,595.830078 
	C303.396942,595.021240 303.909485,594.100830 304.678925,592.991699 
z"/>
<path fill="#1971FC" opacity="1.000000" stroke="none" 
	d="
M776.309692,487.964783 
	C776.548462,487.189728 777.054932,486.246857 777.893555,485.216309 
	C777.676208,486.018066 777.126770,486.907501 776.309692,487.964783 
z"/>
<path fill="#1366FD" opacity="1.000000" stroke="none" 
	d="
M274.929749,509.425110 
	C275.745789,509.586426 276.738068,510.016327 277.843323,510.771545 
	C277.006165,510.629120 276.056061,510.161407 274.929749,509.425110 
z"/>
<path fill="#207BFD" opacity="1.000000" stroke="none" 
	d="
M509.802673,680.453186 
	C510.237000,680.744812 510.742279,681.293823 511.164062,682.150879 
	C510.678314,681.876099 510.276001,681.293335 509.802673,680.453186 
z"/>
<path fill="#1C71FD" opacity="1.000000" stroke="none" 
	d="
M724.095459,597.628174 
	C723.697266,597.406616 723.234436,596.906311 722.898254,596.197266 
	C723.360229,596.442139 723.695496,596.895752 724.095459,597.628174 
z"/>
<path fill="#1971FC" opacity="1.000000" stroke="none" 
	d="
M763.378540,501.171967 
	C763.650940,500.667175 764.206848,500.038574 765.106079,499.381470 
	C764.853577,499.918030 764.257812,500.483093 763.378540,501.171967 
z"/>
<path fill="#2078FD" opacity="1.000000" stroke="none" 
	d="
M327.370422,568.602539 
	C326.941650,569.244141 326.224060,570.018494 325.169189,570.841553 
	C325.581787,570.171997 326.331696,569.453674 327.370422,568.602539 
z"/>
<path fill="#2078FD" opacity="1.000000" stroke="none" 
	d="
M329.627197,566.859375 
	C329.347321,567.351929 328.783051,567.949585 327.882446,568.557312 
	C328.145020,568.033081 328.743896,567.498779 329.627197,566.859375 
z"/>
<path fill="#2079FD" opacity="1.000000" stroke="none" 
	d="
M693.274292,564.190613 
	C692.749939,564.083618 692.025452,563.767883 691.201111,563.142212 
	C691.758911,563.215454 692.416443,563.598633 693.274292,564.190613 
z"/>
<path fill="#1366FD" opacity="1.000000" stroke="none" 
	d="
M278.116333,511.307007 
	C278.742859,511.338898 279.600281,511.626160 280.716217,512.141907 
	C280.098907,512.101074 279.223053,511.831696 278.116333,511.307007 
z"/>
<path fill="#1971FC" opacity="1.000000" stroke="none" 
	d="
M778.408936,485.062561 
	C778.442810,484.676025 778.749939,484.130554 779.340698,483.415405 
	C779.310364,483.798370 778.996277,484.350983 778.408936,485.062561 
z"/>
<path fill="#1971FC" opacity="1.000000" stroke="none" 
	d="
M780.422974,482.069916 
	C780.443054,481.677032 780.737000,481.115173 781.305786,480.364502 
	C781.286011,480.750763 780.991394,481.325836 780.422974,482.069916 
z"/>
<path fill="#1971FC" opacity="1.000000" stroke="none" 
	d="
M782.380310,479.011230 
	C782.361633,478.617065 782.612610,478.039734 783.084106,477.225830 
	C783.086365,477.602203 782.868164,478.215118 782.380310,479.011230 
z"/>
<path fill="#1871FC" opacity="1.000000" stroke="none" 
	d="
M449.169739,449.612366 
	C448.898804,449.396759 448.563843,448.862244 448.158569,448.014343 
	C448.427399,448.231781 448.766571,448.762634 449.169739,449.612366 
z"/>
<path fill="#1677FC" opacity="1.000000" stroke="none" 
	d="
M524.261475,421.667053 
	C523.961792,421.475189 523.594116,420.962921 523.140320,420.145447 
	C523.433960,420.342377 523.813721,420.844513 524.261475,421.667053 
z"/>
<path fill="#207BFD" opacity="1.000000" stroke="none" 
	d="
M521.294678,417.602600 
	C520.993835,417.449890 520.599487,417.006866 520.103516,416.282806 
	C520.401733,416.438568 520.801514,416.875427 521.294678,417.602600 
z"/>
<path fill="#207BFD" opacity="1.000000" stroke="none" 
	d="
M519.898071,415.738068 
	C519.565125,415.641296 519.131042,415.283936 518.616638,414.641907 
	C518.956543,414.730621 519.376648,415.104065 519.898071,415.738068 
z"/>
<path fill="#1C71FD" opacity="1.000000" stroke="none" 
	d="
M729.143799,606.678406 
	C728.874146,606.470947 728.548950,605.950378 728.156616,605.125122 
	C728.422424,605.335388 728.755371,605.850342 729.143799,606.678406 
z"/>
<path fill="#1E73FD" opacity="1.000000" stroke="none" 
	d="
M306.739410,590.117310 
	C306.693512,590.459534 306.407501,590.989624 305.889771,591.718262 
	C305.938477,591.379578 306.218903,590.842407 306.739410,590.117310 
z"/>
<path fill="#2078FD" opacity="1.000000" stroke="none" 
	d="
M462.413574,596.032166 
	C462.377869,595.637146 462.605835,595.058777 463.060242,594.254700 
	C463.083527,594.635620 462.880371,595.242188 462.413574,596.032166 
z"/>
<path fill="#2078FD" opacity="1.000000" stroke="none" 
	d="
M461.387024,598.009033 
	C461.357635,597.621094 461.587311,597.046936 462.038330,596.245483 
	C462.055115,596.619751 461.850616,597.221252 461.387024,598.009033 
z"/>
<path fill="#2078FD" opacity="1.000000" stroke="none" 
	d="
M460.353210,599.978149 
	C460.331360,599.600342 460.562073,599.033691 461.009094,598.241272 
	C461.018829,598.606812 460.812317,599.197998 460.353210,599.978149 
z"/>
<path fill="#2078FD" opacity="1.000000" stroke="none" 
	d="
M335.292084,562.496948 
	C335.167999,562.809875 334.776794,563.256836 334.086731,563.780029 
	C334.200256,563.447815 334.612610,563.039368 335.292084,562.496948 
z"/>
<path fill="#1E73FD" opacity="1.000000" stroke="none" 
	d="
M299.623901,600.998840 
	C299.647095,601.390259 299.404968,601.964294 298.940186,602.768433 
	C298.931213,602.392883 299.144897,601.787109 299.623901,600.998840 
z"/>
<path fill="#1366FD" opacity="1.000000" stroke="none" 
	d="
M280.830658,512.345703 
	C281.095398,512.271790 281.345886,512.525208 281.807190,512.952087 
	C281.617432,512.974731 281.216919,512.823853 280.830658,512.345703 
z"/>
<path fill="#207BFD" opacity="1.000000" stroke="none" 
	d="
M516.464905,412.208191 
	C516.312317,412.236053 516.018799,412.039642 515.600098,411.600311 
	C515.757935,411.566254 516.040955,411.775085 516.464905,412.208191 
z"/>
<path fill="#207BFD" opacity="1.000000" stroke="none" 
	d="
M517.464966,413.208557 
	C517.312683,413.236115 517.019104,413.039703 516.600464,412.600311 
	C516.758118,412.566437 517.040894,412.775482 517.464966,413.208557 
z"/>
<path fill="#207BFD" opacity="1.000000" stroke="none" 
	d="
M518.465088,414.210022 
	C518.312866,414.237366 518.018982,414.040466 517.599365,413.600464 
	C517.756897,413.566803 518.040100,413.776276 518.465088,414.210022 
z"/>
<path fill="#2079FD" opacity="1.000000" stroke="none" 
	d="
M693.948120,564.765320 
	C694.018372,564.908508 693.705383,564.952332 693.705383,564.952332 
	C693.705383,564.952332 693.555420,564.708374 693.573242,564.595459 
	C693.591125,564.482544 693.877930,564.622131 693.948120,564.765320 
z"/>
<path fill="#1366FD" opacity="1.000000" stroke="none" 
	d="
M274.240967,509.015015 
	C274.316864,508.793365 274.557434,508.858307 274.845764,509.180115 
	C274.782776,509.236481 274.620148,509.191376 274.240967,509.015015 
z"/>
<path fill="#2078FD" opacity="1.000000" stroke="none" 
	d="
M324.702881,570.916870 
	C324.723328,571.082275 324.464844,571.351807 323.994781,571.805054 
	C323.996765,571.666260 324.210358,571.343567 324.702881,570.916870 
z"/>
<path fill="#207BFD" opacity="1.000000" stroke="none" 
	d="
M522.186401,418.611084 
	C522.020813,418.642456 521.727478,418.391724 521.231689,417.935181 
	C521.372375,417.929199 521.715576,418.129089 522.186401,418.611084 
z"/>
<path fill="#2078FD" opacity="1.000000" stroke="none" 
	d="
M323.685547,571.876038 
	C323.709442,572.047424 323.446960,572.325073 322.969849,572.792786 
	C322.969879,572.649292 323.184509,572.315796 323.685547,571.876038 
z"/>
<path fill="#2078FD" opacity="1.000000" stroke="none" 
	d="
M313.695251,581.851074 
	C313.718048,582.027771 313.455750,582.300720 312.970520,582.748535 
	C312.968445,582.598022 313.189301,582.272644 313.695251,581.851074 
z"/>
<path fill="#1971FC" opacity="1.000000" stroke="none" 
	d="
M765.427612,499.339905 
	C765.378784,499.132965 765.663696,498.836761 766.158386,498.318542 
	C766.165955,498.481262 765.963684,498.865936 765.427612,499.339905 
z"/>
<path fill="#1971FC" opacity="1.000000" stroke="none" 
	d="
M766.537598,498.438873 
	C766.484558,498.242340 766.746643,497.930145 767.222168,497.399841 
	C767.241333,497.562225 767.046997,497.942719 766.537598,498.438873 
z"/>
<path fill="#1E73FD" opacity="1.000000" stroke="none" 
	d="
M308.715088,587.873413 
	C308.738586,588.049561 308.477325,588.317505 307.999329,588.763550 
	C307.998505,588.616211 308.214386,588.290771 308.715088,587.873413 
z"/>
<path fill="#1971FC" opacity="1.000000" stroke="none" 
	d="
M767.641418,497.462433 
	C767.588806,497.271088 767.834045,496.948273 768.307617,496.421692 
	C768.337036,496.588959 768.138184,496.959961 767.641418,497.462433 
z"/>
<path fill="#1971FC" opacity="1.000000" stroke="none" 
	d="
M768.636841,496.470215 
	C768.583862,496.280457 768.827637,495.958344 769.296265,495.430603 
	C769.325317,495.595978 769.129517,495.966919 768.636841,496.470215 
z"/>
<path fill="#207BFD" opacity="1.000000" stroke="none" 
	d="
M508.925446,679.312012 
	C509.094696,679.295959 509.354370,679.564880 509.785950,680.056763 
	C509.643860,680.052185 509.329865,679.824585 508.925446,679.312012 
z"/>
<path fill="#1971FC" opacity="1.000000" stroke="none" 
	d="
M769.653198,495.468933 
	C769.600891,495.279449 769.842957,494.958344 770.313660,494.436829 
	C770.343994,494.603394 770.145752,494.970306 769.653198,495.468933 
z"/>
<path fill="#1971FC" opacity="1.000000" stroke="none" 
	d="
M770.635254,494.451843 
	C770.580688,494.255707 770.829468,493.934326 771.306519,493.408325 
	C771.336121,493.577972 771.137329,493.952240 770.635254,494.451843 
z"/>
<path fill="#1677FC" opacity="1.000000" stroke="none" 
	d="
M524.029297,667.769897 
	C523.785522,667.702698 523.824890,667.462524 524.137329,667.174377 
	C524.244568,667.089722 524.146545,667.560181 524.029297,667.769897 
z"/>
<path fill="#1971FC" opacity="1.000000" stroke="none" 
	d="
M781.430237,480.251770 
	C781.353210,480.028778 781.590637,479.728424 782.012146,479.203735 
	C782.045715,479.377777 781.895203,479.776093 781.430237,480.251770 
z"/>
<path fill="#1971FC" opacity="1.000000" stroke="none" 
	d="
M774.280396,490.129700 
	C774.259705,489.947357 774.532349,489.687317 775.021301,489.244080 
	C775.016296,489.391266 774.794983,489.721619 774.280396,490.129700 
z"/>
<path fill="#1971FC" opacity="1.000000" stroke="none" 
	d="
M779.460938,483.263550 
	C779.381958,483.034515 779.625977,482.733856 780.049072,482.202087 
	C780.080078,482.377960 779.932007,482.784943 779.460938,483.263550 
z"/>
</svg>