<?xml version="1.0" encoding="UTF-8"?>
<svg version="1.1" xmlns="http://www.w3.org/2000/svg" width="1024" height="1024">
<path d="M0 0 C337.92 0 675.84 0 1024 0 C1024 337.92 1024 675.84 1024 1024 C686.08 1024 348.16 1024 0 1024 C0 686.08 0 348.16 0 0 Z " fill="#1D6BE1" transform="translate(0,0)"/>
<path d="M0 0 C3.37044806 1.27333033 6.47264021 2.95106311 9.625 4.6875 C10.53725342 5.17935791 11.44950684 5.67121582 12.3894043 6.17797852 C36.53330704 19.36825874 57.99345713 35.09822675 78.3125 53.5625 C79.16751099 54.33207031 79.16751099 54.33207031 80.03979492 55.1171875 C81.39962165 56.36962062 82.70554012 57.68011702 84 59 C84 59.66 84 60.32 84 61 C84.59683594 61.26167969 85.19367188 61.52335937 85.80859375 61.79296875 C88.14283074 63.07867148 89.3599093 64.27897096 91.0625 66.3125 C91.66578125 67.02664063 92.2690625 67.74078125 92.890625 68.4765625 C93.58671875 69.30929687 94.2828125 70.14203125 95 71 C95.84046875 71.97710937 96.6809375 72.95421875 97.546875 73.9609375 C103.97274848 81.43898733 110.07225266 89.12164209 116 97 C116.52899902 97.70253906 117.05799805 98.40507812 117.60302734 99.12890625 C121.07712465 103.74631382 124.54152945 108.37087876 128 113 C131.07533394 110.06946878 133.60974993 106.98268322 136.125 103.5625 C136.92260845 102.48785897 137.72080615 101.41365509 138.51953125 100.33984375 C139.13368896 99.51202393 139.13368896 99.51202393 139.76025391 98.66748047 C154.33017639 79.07067649 170.26934805 59.76859537 189 44 C189.79011475 43.33121826 189.79011475 43.33121826 190.59619141 42.64892578 C207.15150401 28.70110922 224.63662207 16.70626709 243.62548828 6.30981445 C245.25232118 5.41243027 246.87016667 4.49861336 248.47998047 3.57104492 C249.27162598 3.11705322 250.06327148 2.66306152 250.87890625 2.1953125 C251.58217041 1.78684082 252.28543457 1.37836914 253.01000977 0.95751953 C256.18558163 -0.57046389 258.56783692 -0.59402823 262 0 C264.75329021 1.79562405 266.52627461 3.05254922 268 6 C268.47878243 8.94109208 268.57315755 11.05041962 266.99853516 13.65917969 C262.71309381 18.87480596 257.91563497 21.56765603 251.9375 24.5625 C219.89021229 41.34546924 190.06814645 65.1888088 168 94 C166.93930826 95.33477229 165.87663484 96.66797107 164.8125 98 C156.34890667 108.65655107 148.54125828 119.67484239 141 131 C142.88296644 134.89506268 145.2072496 138.4211415 147.625 142 C148.88200904 143.87136715 150.1375109 145.74241591 151.3722229 147.62860107 C152.51969133 149.30027062 153.73600933 150.92568067 154.99789429 152.51275635 C161.15415159 160.66552511 162.15148939 167.16296179 162 177.171875 C162.00753878 178.58964248 162.01859054 180.00739515 162.03295898 181.42510986 C162.06111005 185.11466415 162.0422955 188.8024591 162.01287842 192.49194336 C161.99131165 196.2733848 162.01528884 200.05452695 162.03515625 203.8359375 C162.0674021 211.22439475 162.04991519 218.61159168 162 226 C162.37584229 225.24046021 162.37584229 225.24046021 162.75927734 224.46557617 C167.36430579 215.17302558 172.00867546 205.90886447 176.875 196.75 C182.78847542 185.60267845 188.38697966 174.30073867 194 163 C196.03914508 158.89457294 198.08084 154.79043231 200.125 150.6875 C200.62100708 149.68904556 201.11701416 148.69059113 201.62805176 147.66188049 C203.93394408 143.04134272 206.27353182 138.45049209 208.74804688 133.91772461 C212.89627309 126.31224227 216.49966615 119.01305517 219.15625 110.75390625 C223.69795676 97.30861729 228.7941474 85.07137642 241.85414124 78.12969971 C253.32691109 72.68821288 265.44537185 68.8407987 277.54736328 65.06738281 C286.30406939 62.31552196 294.80317431 58.94629099 303.33758545 55.58023071 C307.62813511 53.90070468 311.94050906 52.27991023 316.25390625 50.66015625 C317.07991333 50.34952744 317.90592041 50.03889862 318.75695801 49.71885681 C321.1709447 48.81160723 323.58541269 47.9056497 326 47 C326.7507782 46.718078 327.5015564 46.43615601 328.27508545 46.14569092 C339.16826853 42.05591912 350.07792732 38.01194527 361 34 C362.38538971 33.49095123 362.38538971 33.49095123 363.79876709 32.97161865 C369.88020616 30.73801723 375.96368774 28.51008026 382.04937744 26.28808594 C384.04968969 25.55744339 386.04965246 24.82584333 388.04925537 24.09326172 C390.83505288 23.07325694 393.62236382 22.05750633 396.41015625 21.04296875 C397.25108322 20.73429367 398.09201019 20.42561859 398.9584198 20.10758972 C404.77113909 18 404.77113909 18 407 18 C407.65729547 43.46095878 408.14937049 68.92062751 408.45074081 94.3883934 C408.59446813 106.21707309 408.78995962 118.04045043 409.11230469 129.86572266 C409.39350216 140.18650858 409.57250471 150.50345367 409.63447785 160.82796407 C409.67065823 166.28534528 409.75406559 171.7317522 409.96044159 177.18556976 C411.30853048 214.20195721 411.30853048 214.20195721 398.79671407 228.15999532 C392.79097813 234.41362306 386.2198027 240.18644151 379 245 C378.34 245 377.68 245 377 245 C377 245.66 377 246.32 377 247 C375.7421875 248.234375 375.7421875 248.234375 373.875 249.75 C369.06658442 253.82260821 364.68039977 258.26111602 360.27685547 262.76074219 C356.66142695 266.42868761 352.91964683 269.87053873 349.02197266 273.23632812 C345.66916261 276.16082701 342.42911461 279.20337876 339.1875 282.25 C338.50042969 282.89461182 337.81335938 283.53922363 337.10546875 284.20336914 C331.28459494 289.68690919 325.60097246 295.29222934 320 301 C324.15202743 308.69565767 328.43254152 316.30699264 332.8125 323.875 C333.45268066 324.98270752 334.09286133 326.09041504 334.75244141 327.23168945 C344.12905038 343.44145303 353.54652458 359.63336473 363.1875 375.6875 C363.84878906 376.7909375 364.51007812 377.894375 365.19140625 379.03125 C366.40567351 381.02443167 367.64313104 383.0036542 368.90234375 384.96875 C369.47082031 385.8659375 370.03929687 386.763125 370.625 387.6875 C371.11226562 388.43386719 371.59953125 389.18023438 372.1015625 389.94921875 C373.25240417 392.57613995 372.92712441 393.30293743 372 396 C370.89527265 398.04248799 369.72858431 400.05180287 368.52734375 402.0390625 C368.17279617 402.62851151 367.8182486 403.21796051 367.45295715 403.82527161 C366.28625259 405.76165484 365.11204054 407.69336146 363.9375 409.625 C363.11913722 410.97904931 362.30110742 412.33329991 361.48339844 413.68774414 C354.98469431 424.43721651 348.40689347 435.13806389 341.8046875 445.82421875 C338.71727147 450.82539367 335.661662 455.84501069 332.61743164 460.87255859 C326.88077564 470.34603871 321.02611324 479.73205638 315.05395508 489.05883789 C310.85561509 495.62449762 306.75949282 502.2457678 302.71484375 508.90698242 C299.22182161 514.6563544 295.64806579 520.34736564 292 526 C288.09439667 524.69813222 287.75349685 523.31354055 285.76953125 519.76171875 C284.824729 518.08783081 284.824729 518.08783081 283.86083984 516.38012695 C283.17796105 515.14930614 282.4951839 513.91842893 281.8125 512.6875 C281.09942887 511.41767399 280.3853836 510.14839456 279.67041016 508.87963867 C278.18264478 506.23790463 276.69913521 503.59384515 275.21826172 500.94824219 C273.12595219 497.21648322 271.00823861 493.49979801 268.87890625 489.7890625 C268.3802581 488.92004807 268.3802581 488.92004807 267.87153625 488.03347778 C267.2049481 486.87210955 266.53828692 485.71078322 265.87155151 484.54949951 C259.84722303 474.04903317 253.90542972 463.5034833 248.00292969 452.93408203 C242.94084221 443.87568561 237.80171256 434.86302524 232.63964844 425.86132812 C229.84425074 420.98311773 227.05629125 416.10065746 224.26751709 411.21865845 C222.558845 408.22763672 220.84971026 405.23687939 219.140625 402.24609375 C218.44856552 401.03499474 217.75650823 399.82389448 217.06445312 398.61279297 C216.55168823 397.71545441 216.55168823 397.71545441 216.02856445 396.79998779 C215.01318359 395.02307129 213.99780273 393.24615479 212.98242188 391.46923828 C212.65224564 390.89143112 212.3220694 390.31362396 211.98188782 389.7183075 C211.31699696 388.55474595 210.65211048 387.39118191 209.98722839 386.22761536 C208.32597985 383.32038588 206.66465473 380.41320021 205.00317383 377.50610352 C201.99229778 372.23779441 198.98197634 366.96917239 195.9744873 361.69892883 C194.29586431 358.75740638 192.61674918 355.81616501 190.9375 352.875 C190.44506805 352.01239059 190.44506805 352.01239059 189.94268799 351.13235474 C186.26721192 344.69534819 182.58091385 338.26491539 178.87109375 331.84765625 C178.53353561 331.26359009 178.19597748 330.67952393 177.84819031 330.07775879 C176.24977375 327.31282052 174.64953963 324.54895793 173.04663086 321.78662109 C169.26035864 315.24568326 165.58601722 308.65285503 162 302 C161.99786247 302.86205048 161.99786247 302.86205048 161.99568176 303.74151611 C161.9758411 309.77769382 161.921264 315.8128797 161.84741211 321.84863281 C161.82435863 324.09465392 161.80986642 326.34078119 161.80444336 328.58691406 C161.73697793 351.9403327 161.73697793 351.9403327 156 362 C154.95199787 364.12512937 153.90929446 366.25287762 152.87109375 368.3828125 C151.72942528 370.63166396 150.58478933 372.87901091 149.4375 375.125 C142.60868401 388.59535249 136.22894351 402.24167836 130 416 C128.68 416 127.36 416 126 416 C119.23823251 402.06503916 112.53596078 388.10489257 106 374.0625 C105.47317627 372.93424805 104.94635254 371.80599609 104.40356445 370.64355469 C103.3932956 368.46520786 102.39802332 366.27983619 101.41870117 364.08740234 C100.06281595 361.0387894 100.06281595 361.0387894 98.54418945 358.35400391 C93.27911376 348.01923802 94.21605886 336.56276862 94.1875 325.25 C94.16432273 323.0885168 94.13895077 320.92705596 94.11132812 318.765625 C94.04889585 313.51040713 94.01362567 308.2555593 94 303 C93.67767395 303.56407059 93.3553479 304.12814117 93.02325439 304.70930481 C78.203125 330.64453125 78.203125 330.64453125 76.24560547 334.07006836 C74.90069469 336.42364155 73.55599088 338.77733283 72.21142578 341.13110352 C69.12042857 346.54179217 66.0284506 351.95190509 62.93057251 357.35865784 C61.24464043 360.30118101 59.55958372 363.24420472 57.875 366.1875 C57.54280457 366.76787018 57.21060913 367.34824036 56.86834717 367.94619751 C52.1540339 376.18656938 47.49662254 384.45729219 42.875 392.75 C38.3622466 400.84721629 33.75849786 408.88272226 29.0625 416.875 C23.37875448 426.55093813 17.8920974 436.32555939 12.46289062 446.14624023 C7.27418771 455.52752826 1.9815344 464.84461106 -3.35888672 474.14013672 C-6.23466324 479.15156875 -9.09879147 484.16966168 -11.96438599 489.18692017 C-13.66333201 492.16131481 -15.36294528 495.13532813 -17.0625 498.109375 C-17.72656577 499.27148251 -18.3906283 500.43359186 -19.0546875 501.59570312 C-23.703125 509.73046875 -28.3515625 517.86523438 -33 526 C-33.99 526 -34.98 526 -36 526 C-37.58470515 523.65251929 -38.95516904 521.35158667 -40.3125 518.875 C-44.20593767 512.01306093 -48.28732611 505.31810988 -52.5625 498.6875 C-57.95840311 490.28232896 -63.20754214 481.79665464 -68.375 473.25 C-68.73025757 472.66263062 -69.08551514 472.07526123 -69.45153809 471.47009277 C-70.17120238 470.28020764 -70.89085772 469.09031708 -71.61050415 467.90042114 C-71.96720184 467.31066498 -72.32389954 466.72090881 -72.69140625 466.11328125 C-73.04818451 465.52328339 -73.40496277 464.93328552 -73.77255249 464.32540894 C-81.65653241 451.29688305 -89.60507244 438.30287735 -97.77441406 425.45117188 C-99.21793553 423.17554769 -100.64613401 420.89080074 -102.07421875 418.60546875 C-104.17089861 415.26336538 -106.35765128 411.99662014 -108.58203125 408.73828125 C-109.74293371 406.97184435 -110.90310869 405.2049291 -112.0625 403.4375 C-112.91473145 402.24181396 -112.91473145 402.24181396 -113.78417969 401.02197266 C-115.31162338 398.64236048 -116.35937545 396.75674839 -117 394 C-116.09480433 390.18502578 -114.13654296 387.2525065 -112 384 C-110.91618535 382.15806205 -109.83556252 380.31424302 -108.7578125 378.46875 C-107.54989289 376.47733299 -106.33881339 374.4878301 -105.125 372.5 C-99.68444243 363.51694201 -94.35249733 354.48394067 -89.125 345.375 C-85.17235503 338.49178871 -81.21883971 331.61291954 -77.125 324.8125 C-76.45082031 323.6884375 -75.77664063 322.564375 -75.08203125 321.40625 C-73.5419862 318.88670163 -71.97807242 316.39292167 -70.38671875 313.90625 C-69.74162354 312.87987427 -69.74162354 312.87987427 -69.08349609 311.83276367 C-68.25741094 310.51969133 -67.41850475 309.21456788 -66.56494141 307.91918945 C-65.29773611 305.97093051 -65.29773611 305.97093051 -64 303 C-65.10932892 299.89922519 -66.88181526 297.87095151 -69.1953125 295.57421875 C-69.82953125 294.94193359 -70.46375 294.30964844 -71.1171875 293.65820312 C-71.77976562 293.00787109 -72.44234375 292.35753906 -73.125 291.6875 C-73.764375 291.04876953 -74.40375 290.41003906 -75.0625 289.75195312 C-78.91440047 285.93485899 -82.88472387 282.30793356 -86.98632812 278.76196289 C-90.46560646 275.71759435 -93.82475781 272.54690393 -97.1875 269.375 C-97.92218506 268.68349854 -98.65687012 267.99199707 -99.41381836 267.27954102 C-104.55193169 262.42238777 -109.60020303 257.48631142 -114.5378418 252.42529297 C-119.32394209 247.55368297 -124.32838165 242.93967729 -129.86056519 238.92314148 C-140.24674945 231.37656465 -150.46389109 223.01260446 -152.78631258 209.76328945 C-154.2608279 198.03711659 -153.81357822 186.16562014 -153.43345451 174.3826561 C-153.28166008 168.87017919 -153.26919133 163.35726188 -153.24084473 157.84301758 C-153.1667471 147.43918855 -152.97053517 137.04153579 -152.72845697 126.64040661 C-152.45859302 114.78363901 -152.32784921 102.92654912 -152.20776653 91.06746674 C-151.95804508 66.70824231 -151.53693171 42.35446962 -151 18 C-149.41904924 18.46979192 -147.83845592 18.94078681 -146.25801086 19.41227722 C-145.37777913 19.67443118 -144.4975474 19.93658514 -143.59064198 20.20668316 C-139.95217587 21.32086893 -136.37253806 22.57435269 -132.79296875 23.86328125 C-132.04309189 24.13127533 -131.29321503 24.39926941 -130.52061462 24.67538452 C-128.0750146 25.55104381 -125.6310954 26.43126316 -123.1875 27.3125 C-122.33242859 27.62023346 -121.47735718 27.92796692 -120.59637451 28.24502563 C-97.98853629 36.38782752 -75.53879521 44.9277191 -53.12109375 53.578125 C-52.09543808 53.97378159 -51.06978241 54.36943817 -50.01304626 54.77708435 C-44.77060908 56.80215679 -39.53308726 58.83876821 -34.3034668 60.89672852 C-25.39382462 64.39763371 -16.49551828 67.87660706 -7.44587708 71.00202942 C-3.9199876 72.22314777 -0.41039521 73.48758526 3.09866333 74.75613403 C4.7113265 75.32483575 6.33187476 75.87176358 7.96017456 76.39401245 C20.84319347 80.53325561 20.84319347 80.53325561 24.43701172 86.57714844 C26.24821112 90.18290073 27.66686276 93.92432245 29.08078003 97.69989014 C30.57436716 101.43720503 32.50853838 104.9107593 34.4375 108.4375 C39.13972341 117.23296816 43.6118268 126.13813459 48.0625 135.0625 C48.60233521 136.14446655 48.60233521 136.14446655 49.15307617 137.24829102 C52.15060209 143.2573282 55.14295601 149.26893721 58.13513184 155.28063965 C60.73357925 160.5007624 63.3339233 165.71993345 65.9375 170.9375 C66.29644348 171.65690765 66.65538696 172.37631531 67.02520752 173.11752319 C71.44752201 181.97433105 75.92864344 190.79169542 80.58520508 199.52832031 C85.23262183 208.26283414 89.61231217 217.13292026 94 226 C93.99476318 225.22485046 93.98952637 224.44970093 93.98413086 223.65106201 C93.94160422 216.29624107 93.93801214 208.94286114 93.97665405 201.58805466 C93.99518157 197.8079662 93.99937737 194.02906199 93.96923828 190.24902344 C93.94062883 186.59138753 93.95173115 182.93571398 93.98880005 179.27817535 C93.99616789 177.89255396 93.98993352 176.50678204 93.96896362 175.12129974 C93.82062042 164.42874277 96.37347206 158.30201837 103 150 C104.06133149 148.49697797 105.11444619 146.98804865 106.15234375 145.46875 C107.56007158 143.45937916 108.97107018 141.45277644 110.39257812 139.453125 C111.07803711 138.47085938 111.07803711 138.47085938 111.77734375 137.46875 C112.18202881 136.89576172 112.58671387 136.32277344 113.00366211 135.73242188 C114.13542436 133.76452554 114.73269922 132.25978118 115 130 C114.2876748 128.19789806 114.2876748 128.19789806 113.0078125 126.53125 C112.55446533 125.88365723 112.10111816 125.23606445 111.6340332 124.56884766 C110.88706177 123.54476807 110.88706177 123.54476807 110.125 122.5 C109.62121826 121.79020996 109.11743652 121.08041992 108.59838867 120.34912109 C107.08056242 118.2214347 105.5441853 116.10861165 104 114 C103.36650635 113.13036621 103.36650635 113.13036621 102.72021484 112.24316406 C95.64110903 102.55967548 88.23240883 93.22274511 80.14453125 84.36328125 C78.26548887 82.2925697 76.43985594 80.18921663 74.625 78.0625 C66.82644668 69.14986763 58.32296532 61.2875877 49 54 C47.74339401 52.99100443 46.48689006 51.98188178 45.23046875 50.97265625 C30.64869557 39.3992121 14.76139835 30.29890579 -1.6418457 21.56396484 C-2.43163818 21.13937988 -3.22143066 20.71479492 -4.03515625 20.27734375 C-5.07748413 19.72421509 -5.07748413 19.72421509 -6.14086914 19.15991211 C-9.37598676 17.14152159 -10.78257563 15.65227311 -12 12 C-12.48371102 7.64660085 -12.48792815 5.69492797 -9.9375 2.0625 C-6.14838727 -0.59794086 -4.59119921 -0.49436642 0 0 Z " fill="#FCFDFE" transform="translate(384,259)"/>
<path d="M0 0 C3.16076327 0.61432775 6.15863488 1.30890626 9.203125 2.36010742 C10.00578796 2.63576035 10.80845093 2.91141327 11.63543701 3.19541931 C12.92964569 3.64589378 12.92964569 3.64589378 14.25 4.10546875 C15.16259583 4.42073013 16.07519165 4.73599152 17.01544189 5.06080627 C20.01193567 6.09838085 23.00622695 7.14210246 26 8.1875 C27.03362671 8.54791382 28.06725342 8.90832764 29.13220215 9.27966309 C47.96895931 15.857175 66.68795407 22.68856 85.27612305 29.93841553 C88.3085889 31.12026725 91.34282192 32.29752826 94.37695312 33.47509766 C100.11915144 35.70690183 105.85407489 37.95665655 111.58483887 40.21765137 C113.84600267 41.10806998 116.10876456 41.9944419 118.37316895 42.87658691 C121.54567725 44.11455572 124.71097132 45.3694498 127.875 46.62890625 C128.82534119 46.99611282 129.77568237 47.3633194 130.75482178 47.74165344 C140.97757179 51.85752037 144.3474904 57.9870758 149.04296875 67.6328125 C149.91244963 69.38622184 150.78193245 71.13963023 151.65151691 72.8929882 C152.86606294 75.34836684 154.07123996 77.80829625 155.27661133 80.26818848 C157.93537028 85.68796634 160.61655218 91.09674279 163.29296875 96.5078125 C163.87186859 97.68047668 164.45076843 98.85314087 165.04721069 100.06134033 C168.72782267 107.4976241 172.51306431 114.86656419 176.4103241 122.19119263 C181.74967267 132.24706028 186.76280615 142.46767131 191.82275391 152.66601562 C197.33405437 163.76598242 202.95575555 174.79319157 208.75488281 185.74560547 C211.61420926 191.14990335 214.38913301 196.59476584 217.125 202.0625 C217.60453125 203.00931641 218.0840625 203.95613281 218.578125 204.93164062 C219.02929688 205.83205078 219.48046875 206.73246094 219.9453125 207.66015625 C220.34250488 208.45043213 220.73969727 209.24070801 221.14892578 210.05493164 C222 212 222 212 222 214 C208.11236058 217.6340262 194.10039667 220.63527789 180.0625 223.625 C178.85088196 223.88401093 177.63926392 224.14302185 176.39093018 224.40988159 C156.55450534 228.64978142 136.69456704 232.76815206 116.81274414 236.78955078 C115.85696976 236.98299072 114.90119537 237.17643066 113.91645813 237.37573242 C112.08457872 237.74591679 110.25246437 238.11494087 108.42008972 238.48266602 C104.49555363 239.27351757 100.57943309 240.08305069 96.67675781 240.97607422 C95.42475586 241.26111816 94.17275391 241.54616211 92.8828125 241.83984375 C91.29944092 242.21484009 91.29944092 242.21484009 89.68408203 242.59741211 C86.99936222 243.00009566 85.50774727 242.97563556 83 242 C80.58203125 240.05859375 80.58203125 240.05859375 77.8125 237.4375 C77.30130615 236.95788818 76.7901123 236.47827637 76.26342773 235.98413086 C75.12633649 234.91551684 73.99247439 233.8434596 72.86132812 232.76855469 C70.87724358 230.88336208 68.88479467 229.00733199 66.890625 227.1328125 C64.71646622 225.08887098 62.54307177 223.04416568 60.37280273 220.99609375 C55.90218221 216.77805349 51.40355177 212.59322186 46.875 208.4375 C43.05683821 204.9335712 39.33051327 201.36499798 35.69544411 197.6714344 C34.05194597 196.05121035 32.36985439 194.51273305 30.63461304 192.99142456 C29.93206768 192.37449612 29.22952232 191.75756767 28.50568771 191.12194443 C26.68668746 189.58152204 24.83140381 188.08362541 22.95570755 186.61276627 C11.17613513 177.3662016 -0.65678356 167.74219235 -2.56976521 152.1129688 C-3.26897847 143.90047065 -2.99075661 135.67159518 -2.63624239 127.44931555 C-2.4709661 122.95153002 -2.45823034 118.45302042 -2.42758179 113.95266724 C-2.34753294 105.47419837 -2.13533594 97.00470062 -1.87249506 88.53014195 C-1.57938776 78.86473942 -1.43832551 69.19885107 -1.30841374 59.53009391 C-1.03840208 39.68176693 -0.58269493 19.84145343 0 0 Z " fill="#1D6AE1" transform="translate(252,305)"/>
<path d="M0 0 C0.53993255 20.85385798 0.94413019 41.706547 1.19167995 62.56600285 C1.30973967 72.25432023 1.47031754 81.93826921 1.73510742 91.6237793 C1.9660979 100.07708246 2.11313034 108.52722133 2.16403538 116.98359293 C2.193754 121.45347882 2.26225928 125.91432348 2.43179131 130.38127327 C3.53799748 160.69877745 3.53799748 160.69877745 -6.46932906 171.86414307 C-11.53277545 177.12787281 -17.20070316 181.57595692 -23 186 C-27.52955169 189.81857996 -31.86535334 193.75360614 -36 198 C-38.85523683 200.88989828 -41.71500196 203.68451745 -44.8125 206.3125 C-48.57138119 209.5224168 -52.02715593 212.98812966 -55.5 216.5 C-59.46882967 220.50873153 -63.4376203 224.41942072 -67.77734375 228.03125 C-69.70955084 229.74273044 -71.50699993 231.50555882 -73.31640625 233.34375 C-73.92170166 233.94380859 -74.52699707 234.54386719 -75.15063477 235.16210938 C-76.36043759 236.36440584 -77.55330112 237.58405311 -78.72631836 238.82226562 C-79.2910083 239.37591797 -79.85569824 239.92957031 -80.4375 240.5 C-80.93121094 241.0053125 -81.42492187 241.510625 -81.93359375 242.03125 C-86.9129346 244.36561017 -94.76754339 241.51961135 -99.99121094 240.42114258 C-101.12518814 240.18666412 -101.12518814 240.18666412 -102.28207397 239.94744873 C-104.7668168 239.43285208 -107.25059502 238.91375357 -109.734375 238.39453125 C-111.49427163 238.02893918 -113.25422144 237.66360299 -115.01422119 237.29850769 C-118.70975193 236.5312421 -122.40484874 235.76193214 -126.09960938 234.9909668 C-130.74696355 234.02123934 -135.39501263 233.05489916 -140.04335403 232.08991623 C-157.76124141 228.41139385 -175.47552438 224.71819146 -193.16253662 220.89350891 C-202.75389661 218.82173332 -212.37055181 216.88595183 -222 215 C-215.28661463 197.76424389 -206.1673455 181.22703041 -197.69188118 164.80786705 C-190.04852592 149.98989718 -182.53231294 135.1139612 -175.15447426 120.1620369 C-173.75719787 117.3308882 -172.3576257 114.50088617 -170.95732117 111.67123413 C-165.30019157 100.23878017 -165.30019157 100.23878017 -159.6706543 88.79272461 C-157.32609316 84.01176743 -154.96606031 79.23873869 -152.59538078 74.47068214 C-151.7097266 72.68219888 -150.82978627 70.89087334 -149.95593452 69.09659386 C-148.75037728 66.62279948 -147.52529274 64.15964562 -146.29516602 61.69799805 C-145.94764786 60.97262848 -145.6001297 60.24725891 -145.24208069 59.49990845 C-142.30353482 53.7054448 -138.34392617 50.66898739 -132.23071289 48.359375 C-131.54911606 48.09759964 -130.86751923 47.83582428 -130.16526794 47.56611633 C-129.44170609 47.29679794 -128.71814423 47.02747955 -127.97265625 46.75 C-127.20071426 46.45566574 -126.42877228 46.16133148 -125.63343811 45.858078 C-123.11235646 44.89846907 -120.58750584 43.94922956 -118.0625 43 C-116.28404942 42.32539765 -114.50589525 41.65001341 -112.72802734 40.97387695 C-110.03139964 39.94852213 -107.3345559 38.92377849 -104.63659668 37.90193176 C-98.29702575 35.50023326 -91.97906317 33.04882673 -85.66748047 30.57446289 C-63.76075603 21.9974745 -41.64677704 13.96443099 -19.53826904 5.92510986 C-17.20094629 5.07323786 -14.86606603 4.21501693 -12.53173828 3.35498047 C-11.26213211 2.89136095 -9.99244575 2.42796094 -8.72265625 1.96484375 C-7.66957275 1.57804443 -6.61648926 1.19124512 -5.53149414 0.79272461 C-3 0 -3 0 0 0 Z " fill="#1D6BE1" transform="translate(772,305)"/>
<path d="M0 0 C-4.59579353 8.90613404 -9.48106893 17.61170861 -14.5625 26.25 C-19.6687227 34.93264588 -24.63546962 43.67971851 -29.5 52.5 C-34.89240645 62.27391159 -40.42731315 71.94996343 -46.08203125 81.57421875 C-49.46590608 87.34218721 -52.77944608 93.13937559 -56 99 C-59.80430317 105.92177284 -63.75233779 112.75069399 -67.75 119.5625 C-72.59671031 127.82298018 -77.34305987 136.13109132 -82 144.5 C-87.15428473 153.76042351 -92.43239523 162.93884343 -97.79614258 172.0793457 C-102.55815539 180.20673859 -107.21179711 188.39214074 -111.82641602 196.60400391 C-112.33100342 197.5016748 -112.83559082 198.3993457 -113.35546875 199.32421875 C-113.79528076 200.10885498 -114.23509277 200.89349121 -114.68823242 201.7019043 C-115.33755737 202.83946167 -115.33755737 202.83946167 -116 204 C-116.50829346 204.92143799 -117.01658691 205.84287598 -117.5402832 206.79223633 C-118.02198975 207.52079834 -118.50369629 208.24936035 -119 209 C-119.66 209 -120.32 209 -121 209 C-121.40347656 208.2678125 -121.80695313 207.535625 -122.22265625 206.78125 C-127.19952868 197.90529918 -132.52736922 189.27624792 -137.94116211 180.66088867 C-142.71074365 173.06996349 -147.43320625 165.45173894 -152.125 157.8125 C-153.45959816 155.64060211 -154.79423315 153.46872684 -156.12890625 151.296875 C-156.7748877 150.24564453 -157.42086914 149.19441406 -158.08642578 148.11132812 C-160.5161473 144.16078322 -162.95043402 140.21309439 -165.38989258 136.26855469 C-166.48469025 134.49731875 -167.57707253 132.72458703 -168.66674805 130.95019531 C-170.85148672 127.40352802 -173.04398802 123.88431975 -175.4296875 120.46875 C-176.42355469 119.03015625 -176.42355469 119.03015625 -177.4375 117.5625 C-177.99308594 116.80066406 -178.54867188 116.03882813 -179.12109375 115.25390625 C-180.40544172 111.96026722 -179.27339043 110.2433279 -178 107 C-176.95107019 105.07102872 -175.84083463 103.17459951 -174.68359375 101.30859375 C-174.01046143 100.21377686 -173.3373291 99.11895996 -172.64379883 97.9909668 C-172.28492584 97.41309418 -171.92605286 96.83522156 -171.55630493 96.23983765 C-169.62044715 93.12126956 -167.70531758 89.99001321 -165.7890625 86.859375 C-165.19346275 85.88758553 -165.19346275 85.88758553 -164.58583069 84.89616394 C-160.76531132 78.64767896 -157.05877611 72.33514661 -153.37298584 66.00653076 C-151.27569981 62.40909678 -149.16572336 58.81908236 -147.05831909 55.22756958 C-145.36062514 52.33162805 -143.66965708 49.43212361 -141.9921875 46.52441406 C-140.11489331 43.27748043 -138.21617729 40.04401461 -136.3125 36.8125 C-135.76053955 35.84401123 -135.2085791 34.87552246 -134.63989258 33.87768555 C-133.85328247 32.55571167 -133.85328247 32.55571167 -133.05078125 31.20703125 C-132.60387939 30.4385083 -132.15697754 29.66998535 -131.6965332 28.87817383 C-127.91496264 24.69172652 -121.18234005 24.31299535 -115.84033203 23.23168945 C-115.0422966 23.06707718 -114.24426117 22.9024649 -113.42204285 22.73286438 C-110.78464232 22.18965394 -108.14622752 21.65154059 -105.5078125 21.11328125 C-103.64240919 20.72972086 -101.77708468 20.34577703 -99.91183472 19.96147156 C-94.98297044 18.94675324 -90.05328978 17.93606336 -85.12335205 16.92657471 C-77.34864721 15.3342835 -69.57478518 13.73789562 -61.80156708 12.13836288 C-59.89932413 11.74703817 -57.9970059 11.35607926 -56.09461212 10.96548843 C-46.45634329 8.98562051 -36.82485506 6.98359963 -27.21777344 4.85693359 C-26.46410681 4.69026656 -25.71044018 4.52359953 -24.93393517 4.35188198 C-21.46070211 3.58192137 -17.98940264 2.80437539 -14.52053833 2.01496887 C-12.72929031 1.6134687 -12.72929031 1.6134687 -10.90185547 1.20385742 C-9.87462372 0.9698674 -8.84739197 0.73587738 -7.78903198 0.49479675 C-5.12388451 0.02197811 -2.69942339 -0.09530492 0 0 Z " fill="#1D6AE1" transform="translate(469,540)"/>
<path d="M0 0 C5.32030772 0.7030217 10.54274993 1.66924123 15.7956543 2.76245117 C16.64902878 2.93827728 17.50240326 3.11410339 18.38163757 3.29525757 C21.19626621 3.87574394 24.01024818 4.45930138 26.82421875 5.04296875 C28.8097667 5.45330769 30.79534776 5.86348645 32.78096008 6.27351379 C36.95312496 7.13552953 41.12499058 7.99897453 45.29663086 8.86352539 C51.58975081 10.16769446 57.8837227 11.46772077 64.17773438 12.76757812 C73.1264288 14.6157927 82.07231519 16.47716646 91.01690483 18.34513664 C95.98749118 19.38088037 100.96096429 20.39877745 105.94089413 21.38862514 C107.97754266 21.79440038 110.01286998 22.20616788 112.04780579 22.62043762 C114.39677117 23.09729098 116.74803653 23.56302666 119.10197449 24.01469421 C120.10706558 24.22165421 121.11215668 24.4286142 122.14770508 24.6418457 C123.42415642 24.89379448 123.42415642 24.89379448 124.72639465 25.15083313 C130.02004926 27.12795556 132.48772306 32.13125762 135.1953125 36.79296875 C135.58448853 37.45187103 135.97366455 38.11077332 136.37463379 38.78964233 C137.63048262 40.91894972 138.87778148 43.05312822 140.125 45.1875 C140.98821507 46.65454189 141.85198615 48.12125675 142.71630859 49.58764648 C144.79291481 53.11357076 146.86315844 56.6431718 148.93066406 60.17443848 C150.76476726 63.30560438 152.60611626 66.43250133 154.44677734 69.55981445 C155.22394039 70.88079838 156.00032509 72.20224057 156.77587891 73.52416992 C158.95561158 77.23798441 161.15484857 80.93925086 163.37524414 84.62890625 C164.11397963 85.8578337 164.85022677 87.08826105 165.58374023 88.3203125 C167.62644741 91.74720153 169.71547906 95.13676959 171.85546875 98.50390625 C172.79963387 100.02334138 173.74364726 101.5428708 174.6875 103.0625 C175.14640625 103.76503906 175.6053125 104.46757813 176.078125 105.19140625 C179.12796052 110.16292496 179.12796052 110.16292496 178.53125 114.06640625 C176.76948567 117.44162311 174.88259197 120.68326293 172.8125 123.875 C171.90718849 125.29794582 171.00226554 126.7211389 170.09765625 128.14453125 C169.60281738 128.91877441 169.10797852 129.69301758 168.59814453 130.49072266 C165.62160188 135.1642493 162.68730405 139.86425041 159.75 144.5625 C159.11255859 145.58093994 158.47511719 146.59937988 157.81835938 147.64868164 C152.83913042 155.61881905 147.94674661 163.6393175 143.07714844 171.67675781 C138.79758737 178.72645071 134.42895144 185.71509825 129.99780273 192.67041016 C126.90097183 197.53784234 123.91380974 202.45028389 121.0859375 207.48046875 C120.72757813 207.98191406 120.36921875 208.48335937 120 209 C119.34 209 118.68 209 118 209 C117.6189209 208.30777344 117.2378418 207.61554688 116.84521484 206.90234375 C109.44882778 193.48409987 101.96788125 180.13326746 94.20263672 166.92382812 C90.04330349 159.83227599 85.99743957 152.68391745 82 145.5 C77.424336 137.2779741 72.76429252 129.1141857 68 121 C62.62803207 111.85086711 57.40923475 102.62596869 52.25 93.35546875 C48.25035341 86.18645936 44.15637028 79.07916232 40 72 C34.69141069 62.95486119 29.51952149 53.84220901 24.41479492 44.68066406 C19.76402445 36.34153162 15.05175538 28.03903788 10.3125 19.75 C9.79299774 18.84066711 9.79299774 18.84066711 9.26300049 17.91296387 C5.36643791 11.0374395 5.36643791 11.0374395 1.29370117 4.26660156 C0 2 0 2 0 0 Z " fill="#1D6AE1" transform="translate(556,540)"/>
<path d="M0 0 C7.11471769 2.37157256 11.4486429 10.06262914 14.69178391 16.45362854 C19.36382326 29.11880451 17.8425653 44.23039426 17.71329999 57.51629543 C17.67621249 62.43828087 17.70435267 67.36000723 17.72190857 72.28204346 C17.74089905 80.54670208 17.70624522 88.80983403 17.63989258 97.07421875 C17.56441784 106.56771605 17.57838063 116.05792043 17.63971859 125.55144572 C17.69669693 134.75631834 17.68500476 143.95997539 17.64472771 153.1648941 C17.62912736 157.04825158 17.63730027 160.93040808 17.66610909 164.81368256 C17.79804597 185.80932257 17.89425726 203.26509744 5.30276394 221.08446121 C4.00575651 222.99153583 2.9841042 224.91700439 2 227 C1.34 227 0.68 227 0 227 C-14.01553431 204.68172821 -16.08722218 185.2747002 -15.7488308 159.34237862 C-15.69755378 154.44386814 -15.71972139 149.54554346 -15.73059082 144.64685059 C-15.73769753 136.44691319 -15.68935901 128.24879827 -15.60546875 120.04931641 C-15.50944834 110.60451933 -15.49956167 101.1625725 -15.5353694 91.7174201 C-15.56841003 82.55949727 -15.5445919 73.40258196 -15.49391174 64.24476624 C-15.47324979 60.37567725 -15.47142016 56.50728312 -15.48521423 52.63816833 C-15.49861593 48.08615726 -15.46164429 43.53714493 -15.38718414 38.9857502 C-15.36773789 37.32713949 -15.36478767 35.66823118 -15.38047028 34.00958061 C-15.48411523 21.33089234 -12.46586368 15.42240048 -4 6 C-2.59168397 4.038503 -1.29621764 2.03915575 0 0 Z " fill="#1B68E1" transform="translate(511,408)"/>
<path d="M0 0 C0.33 0.66 0.66 1.32 1 2 C0.67 2.66 0.34 3.32 0 4 C-0.12058055 6.09286161 -0.17742678 8.18949778 -0.20532227 10.28564453 C-0.22017166 11.2516861 -0.22017166 11.2516861 -0.23532104 12.23724365 C-0.26694499 14.36906235 -0.29169687 16.50090335 -0.31640625 18.6328125 C-0.33697502 20.10969629 -0.35797147 21.58657418 -0.37937927 23.06344604 C-0.43460799 26.95305611 -0.4840137 30.84271937 -0.53222656 34.73242188 C-0.58243577 38.70056907 -0.63812486 42.66863889 -0.69335938 46.63671875 C-0.80095072 54.42441367 -0.90239348 62.21217286 -1 70 C-4.16048766 65.85497952 -6.42043301 61.52678519 -8.75 56.875 C-9.17410156 56.05128906 -9.59820312 55.22757812 -10.03515625 54.37890625 C-10.43089844 53.59128906 -10.82664062 52.80367188 -11.234375 51.9921875 C-11.59756836 51.27401855 -11.96076172 50.55584961 -12.33496094 49.81591797 C-12.55442383 49.21666504 -12.77388672 48.61741211 -13 48 C-12.67 47.34 -12.34 46.68 -12 46 C-8.04 53.425 -8.04 53.425 -4 61 C-3.98541748 59.29424805 -3.97083496 57.58849609 -3.95581055 55.83105469 C-3.90413475 50.19106765 -3.83884235 44.551348 -3.76428509 38.91161728 C-3.71958445 35.49269728 -3.68032813 32.07389635 -3.65356445 28.65478516 C-3.62254588 24.7227227 -3.56775647 20.79116374 -3.51171875 16.859375 C-3.50532883 15.63321472 -3.4989389 14.40705444 -3.49235535 13.14373779 C-3.47256119 12.00285706 -3.45276703 10.86197632 -3.43237305 9.68652344 C-3.42126999 8.68280701 -3.41016693 7.67909058 -3.39872742 6.6449585 C-2.94514048 3.63608932 -2.00773933 2.2416598 0 0 Z " fill="#1460DE" transform="translate(480,417)"/>
<path d="M0 0 C0.33 0 0.66 0 1 0 C1.29296875 6.0546875 1.29296875 6.0546875 1 8 C0.01 8.66 -0.98 9.32 -2 10 C-2.66 9.67 -3.32 9.34 -4 9 C-4.66 10.32 -5.32 11.64 -6 13 C-5.52467862 7.92990529 -2.95637706 4.02506742 0 0 Z " fill="#1660DF" transform="translate(475,566)"/>
<path d="M0 0 C0.66 0.33 1.32 0.66 2 1 C1.51016883 5.40848053 0.17580418 7.01100783 -3 10 C-4.04349839 11.63978318 -5.05607981 13.30094366 -6 15 C-6.33 14.34 -6.66 13.68 -7 13 C-5.92325298 10.71741367 -4.80453884 8.5643566 -3.5625 6.375 C-3.22412109 5.76398437 -2.88574219 5.15296875 -2.53710938 4.5234375 C-1.69853808 3.011647 -0.85017423 1.50529601 0 0 Z " fill="#0F57DE" transform="translate(359,769)"/>
<path d="M0 0 C2.31 0 4.62 0 7 0 C5.720327 2.55934601 4.75798964 2.6989233 2.125 3.6875 C1.42632813 3.95949219 0.72765625 4.23148437 0.0078125 4.51171875 C-2 5 -2 5 -5 4 C-4.0409375 3.8453125 -4.0409375 3.8453125 -3.0625 3.6875 C-2.381875 3.460625 -1.70125 3.23375 -1 3 C-0.67 2.01 -0.34 1.02 0 0 Z " fill="#1159DE" transform="translate(642,329)"/>
<path d="M0 0 C1 2 1 2 0.375 4.3125 C-1.26624041 7.52037899 -3.36337053 9.57152549 -6 12 C-4.68139111 7.38486888 -2.78644563 3.90102388 0 0 Z " fill="#1159DE" transform="translate(410,680)"/>
<path d="M0 0 C0.99 0.66 1.98 1.32 3 2 C2.34 3.32 1.68 4.64 1 6 C0.34 6 -0.32 6 -1 6 C-1.33 6.99 -1.66 7.98 -2 9 C-2.33 8.34 -2.66 7.68 -3 7 C-2.06421005 4.64018187 -1.06652192 2.30368736 0 0 Z " fill="#1862DE" transform="translate(557,504)"/>
<path d="M0 0 C0.33 0.66 0.66 1.32 1 2 C-0.59617578 5.83082186 -1.49984971 7.66656647 -5 10 C-3.66511872 6.40608886 -2.03977277 3.24509304 0 0 Z " fill="#0D56DD" transform="translate(332,579)"/>
</svg>
